<?xml version="1.0" encoding="utf-8"?>
<!-- Generator: Adobe Illustrator 18.1.0, SVG Export Plug-In . SVG Version: 6.00 Build 0)  -->
<svg version="1.1" id="Layer_1" xmlns="http://www.w3.org/2000/svg" xmlns:xlink="http://www.w3.org/1999/xlink" x="0px" y="0px"
	 viewBox="0 0 685.1 499.4" enable-background="new 0 0 685.1 499.4" xml:space="preserve">
<g>
	<g>
		<path fill="#1D3259" d="M28.2,366.5c0,6.6,1.3,8.5,6,8.5v1.6H14.6V375c4,0,6.3-1.2,6.3-8.8v-42.1h-8c-7.4,0-10.8,2.1-11.3,7.9H0
			v-12.6h1.6c0.8,0.7,1.6,1.2,3,1.5c1.3,0.3,3,0.5,5.3,0.5h28.9c4.8,0,7-0.6,8.8-2h1.7V332h-1.1c-1.1-4.6-2.9-7.9-11.7-7.9h-8.4
			V366.5z"/>
		<path fill="#1D3259" d="M69.9,350.2v16c0,6.6,1.6,8.8,6.4,8.8v1.6H56.3V375c4.2,0,6.3-1.4,6.3-8.8v-34.4c0-6.6-1.3-8.8-6.3-8.8
			v-1.6h19.9v1.6c-4.3,0-6.4,1.7-6.4,8.8v15.7h30.1v-15.7c0-6.7-1.4-8.8-6.2-8.8v-1.6h19.8v1.6c-4.7,0-6.3,2.2-6.3,8.8v34.4
			c0,6.6,1.5,8.8,6.3,8.8v1.6H93.7V375c4.3,0,6.2-1.4,6.2-8.8v-16H69.9z"/>
		<path fill="#1D3259" d="M157.9,355.7h-1.6c-1.2-4.7-2-5.3-7.7-5.3h-13.7v19.7c0,2.7,1,3.8,4,3.8h9.6c8.1,0,10.1-0.4,13.4-7.6h1.6
			l-2.5,10.3h-39.8V375c4.3,0,6.3-1.3,6.3-8.7v-34.5c0-6.8-1.5-8.8-6.3-8.8v-1.6h39.8v9.2H160c-1.3-6.1-3.2-6.6-9.2-6.6h-15.9v23.6
			h15.4c3.8,0,5.2-0.7,6-5.4h1.6V355.7z"/>
		<path fill="#1D3259" d="M237.8,368.9c-5.3,6.2-11.1,9.1-18.4,9.1c-13.4,0-18.8-9.4-18.8-19v-27.2c0-7.3-1.9-8.8-6.3-8.8v-1.6h19.9
			v1.6c-4.5,0-6.4,1.6-6.4,8.7v27.9c0,8.5,4.7,14.5,14.1,14.5c6.4,0,11.9-3.2,15.8-9.2v-33.2c0-6.4-1.4-8.6-5.9-8.8v-1.6h19.5v1.6
			c-4.6,0-6.3,2.1-6.3,8.8v34.4c0,7.2,2,8.8,6.3,8.8v1.6h-13.6V368.9z"/>
		<path fill="#1D3259" d="M309.5,376.6h-1.6l-38.9-48h-0.2v38.7c0,5.6,2.2,7.6,7.2,7.6v1.6h-16.8V375c4.6,0,6.8-1.4,6.8-9.4v-32.3
			c0-6.2-1.6-9.6-8.2-10.2v-1.6H272l34.5,43h0.2v-32.3c0-7.2-1.9-9.1-6.7-9.1v-1.6h16.7v1.6c-5.4,0-7.1,2.2-7.1,8.7V376.6z"/>
		<path fill="#1D3259" d="M337.4,366.2c0,6.7,1.6,8.8,6.3,8.8v1.6h-19.8V375c4.5,0,6.3-1.7,6.3-8.8v-34.4c0-6.9-1.5-8.8-6.3-8.8
			v-1.6h19.8v1.6c-4.6,0-6.3,2.1-6.3,8.8V366.2z"/>
		<path fill="#1D3259" d="M376.8,377.4h-1.5l-17.1-44.8c-2.6-6.7-4-9.3-9.2-9.5v-1.6h20v1.6c-3.9,0-5.9,2.1-4.2,6.5l13.5,35.6
			l12.8-34.4c1.7-4.7,0.9-7.7-4.1-7.7v-1.6h16.1v1.7c-4.1,0-7.2,3.2-10,10.7L376.8,377.4z"/>
		<path fill="#1D3259" d="M445.3,355.7h-1.6c-1.2-4.7-2-5.3-7.7-5.3h-13.7v19.7c0,2.7,1,3.8,4,3.8h9.6c8.1,0,10.1-0.4,13.4-7.6h1.6
			l-2.5,10.3h-39.8V375c4.3,0,6.3-1.3,6.3-8.7v-34.5c0-6.8-1.5-8.8-6.3-8.8v-1.6h39.8v9.2h-1.1c-1.3-6.1-3.2-6.6-9.2-6.6h-15.9v23.6
			h15.4c3.8,0,5.2-0.7,6-5.4h1.6V355.7z"/>
		<path fill="#1D3259" d="M472.4,366.2c0,6.7,1.7,8.8,6.3,8.8v1.6h-19.8V375c4.2,0,6.3-1.3,6.3-8.8v-34.6c0-7.2-1.8-8.6-6.3-8.6
			v-1.6h22.6c12.4,0,18.4,7.1,18.4,14.4c0,6.1-3.3,11.2-11.4,13.6c10.3,6.6,13.8,24.9,22.9,25.5v1.6h-11.3
			c-10.3-12.5-13.2-25.5-23.3-25.5h-4.4V366.2z M472.4,348.8h6.7c9.3,0,13-6.4,13-12.7c0-7.3-5.5-12.5-14-12.5h-5.8V348.8z"/>
		<path fill="#1D3259" d="M546.1,333.5h-1.6c-0.9-8.2-6.6-11.4-12.2-11.4c-5.8,0-9.9,3.2-9.9,8.3c0,10.2,14.1,12.9,22,20.8
			c3.9,3.9,4.8,7.3,4.8,11c0,8.7-7,15.7-15.7,15.7c-5.9,0-10.8-2.9-12.6-2.9c-1,0-1.6,0.7-2.1,2.1H517v-14.9h1.6
			c0.1,10.2,8.5,13.6,13.3,13.6c6.6,0,11.1-3.9,11.1-9.8c0-9.5-14.8-14-21-20.1c-3.4-3.4-4.7-7.2-4.7-11.6c0-8.5,6.1-14.3,15-14.3
			c5.9,0,8.7,2.1,10.8,2.1c0.9,0,1.1-0.2,1.4-1.5h1.5V333.5z"/>
		<path fill="#1D3259" d="M569.1,366.2c0,6.7,1.6,8.8,6.3,8.8v1.6h-19.8V375c4.5,0,6.3-1.7,6.3-8.8v-34.4c0-6.9-1.5-8.8-6.3-8.8
			v-1.6h19.8v1.6c-4.6,0-6.3,2.1-6.3,8.8V366.2z"/>
		<path fill="#1D3259" d="M609.6,366.5c0,6.6,1.3,8.5,6,8.5v1.6H596V375c4,0,6.3-1.2,6.3-8.8v-42.1h-8c-7.4,0-10.8,2.1-11.3,7.9
			h-1.6v-12.6h1.6c0.8,0.7,1.6,1.2,3,1.5c1.3,0.3,3,0.5,5.3,0.5h28.9c4.8,0,7-0.6,8.8-2h1.7V332h-1.1c-1.1-4.6-2.9-7.9-11.7-7.9
			h-8.4V366.5z"/>
		<path fill="#1D3259" d="M663.9,366.2c0,6.6,1.3,8.8,6.1,8.8v1.6h-20.1V375c4.2,0,6.7-0.9,6.7-8.8v-17.3l-11.8-18.3
			c-3.9-6.1-5.5-7.3-9.8-7.5v-1.6h21.6v1.6c-6.1,0-6.7,2.1-4.5,5.5l10.9,16.8l8.8-13.9c2.7-4.3,2.9-8.4-1.7-8.4v-1.6h15.1v1.6
			c-4.2,0.3-5.7,1.4-8.8,6.3l-12.4,19.6V366.2z"/>
		<path fill="#1D3259" d="M63.3,474c-5.9,0-10-4.6-10-11.2c0-11.5,9.8-22.6,19.8-22.6c5.2,0,9.7,5,9.7,10.9
			C82.8,459.8,75.1,474,63.3,474z M70.6,443c-6.2,0-11.7,9.1-11.7,19.4c0,5.4,2.5,8.9,6.5,8.9c6.4,0,11.8-9.1,11.8-19.7
			C77.1,446.8,74.4,443,70.6,443z"/>
		<path fill="#1D3259" d="M107.6,443.9h-6.7L95.5,472c-2.1,11.4-3.8,17.1-9.1,22.4c-2.3,2.3-7.3,5-12.8,5c-4.5,0-8.7-1-11.2-2.6
			l1.4-6.7h1.6c1,5,4.4,7.4,8.4,7.4c3.3,0,6.8-1.4,9-3.6c3.2-3.2,5.2-9.6,6.6-17.5l6.1-32.6h-6.7l0.3-2.6h6.7l2.4-11.7
			c1.3-6.7,4-16.2,16.3-16.4c2.1,0,3.9,0.4,6.6,1.3l0.3-1.2h1.9l-1.8,8.7h-1.9c-0.2-2-0.9-6.8-6.1-6.8c-4.9,0-7.8,3.9-9.4,11.8
			l-3,14.4h6.7L107.6,443.9z"/>
		<path fill="#1D3259" d="M169.8,452h-1.6c-1.2-4.7-2-5.3-7.7-5.3h-13.7v19.7c0,2.7,1,3.8,4,3.8h9.6c8.1,0,10.1-0.4,13.4-7.6h1.6
			L173,473h-39.8v-1.6c4.3,0,6.3-1.3,6.3-8.7v-34.5c0-6.8-1.5-8.8-6.3-8.8v-1.6H173v9.2h-1.1c-1.3-6.1-3.2-6.6-9.2-6.6h-15.9V444
			h15.4c3.8,0,5.2-0.7,6-5.4h1.6V452z"/>
		<path fill="#1D3259" d="M189.3,428.2c0-6.6-1.6-8.8-6.3-8.8v-1.6h25.5c21.1,0,31.1,14.2,31.1,28.5c0,13.9-8.8,26.7-30.4,26.7H183
			v-1.6c4.4,0,6.3-1.9,6.3-8.8V428.2z M196.6,460.6c0,8.6,1.9,10.2,7,10.2h5.7c13.7,0,21.9-9.4,21.9-24.5c0-13.2-6.6-26.5-24.1-26.5
			h-10.5V460.6z"/>
		<path fill="#1D3259" d="M261.4,462.5c0,6.7,1.6,8.8,6.3,8.8v1.6h-19.8v-1.6c4.5,0,6.3-1.7,6.3-8.8v-34.4c0-6.9-1.5-8.8-6.3-8.8
			v-1.6h19.8v1.6c-4.6,0-6.3,2.1-6.3,8.8V462.5z"/>
		<path fill="#1D3259" d="M324.7,473h-1.6l-38.9-48H284v38.7c0,5.6,2.2,7.6,7.2,7.6v1.6h-16.8v-1.6c4.6,0,6.8-1.4,6.8-9.4v-32.3
			c0-6.2-1.6-9.6-8.2-10.2v-1.6h14.2l34.5,43h0.2v-32.3c0-7.2-1.9-9.1-6.7-9.1v-1.6h16.7v1.6c-5.4,0-7.1,2.2-7.1,8.7V473z"/>
		<path fill="#1D3259" d="M346.1,428.2c0-7-1.6-8.8-6.3-8.8v-1.6h20.8c13.3,0,19.2,6.5,19.2,13.5c0,6.1-3.5,10-11.1,12.5v0.2
			c8.5,1.7,14.3,8.1,14.3,15.5c0,8.3-7.3,13.5-17.7,13.5h-25.4v-1.6c4.6,0,6.3-2,6.3-8.8V428.2z M359.1,443.3c8.1,0,13-4.6,13-11.6
			c0-6.9-4.2-11.9-13.2-11.9h-5.5v23.4H359.1z M353.5,461.6c0,7.4,1.4,9.2,5.7,9.2h4.5c5.6,0,10.9-3.8,10.9-11.9
			c0-8.1-6.2-13.6-15.9-13.6h-5.2V461.6z"/>
		<path fill="#1D3259" d="M433.6,465.2c-5.3,6.2-11.1,9.1-18.4,9.1c-13.4,0-18.8-9.4-18.8-19v-27.2c0-7.3-1.9-8.8-6.3-8.8v-1.6h19.9
			v1.6c-4.5,0-6.4,1.6-6.4,8.7V456c0,8.5,4.7,14.5,14.1,14.5c6.4,0,11.9-3.2,15.8-9.2v-33.2c0-6.4-1.4-8.6-5.9-8.8v-1.6h19.5v1.6
			c-4.6,0-6.3,2.1-6.3,8.8v34.4c0,7.2,2,8.8,6.3,8.8v1.6h-13.6V465.2z"/>
		<path fill="#1D3259" d="M468.7,462.5c0,6.7,1.7,8.8,6.3,8.8v1.6h-19.8v-1.6c4.2,0,6.3-1.3,6.3-8.8V428c0-7.2-1.8-8.6-6.3-8.6v-1.6
			h22.6c12.4,0,18.4,7.1,18.4,14.4c0,6.1-3.3,11.2-11.4,13.6c10.3,6.6,13.8,24.9,22.9,25.5v1.6h-11.3
			c-10.3-12.5-13.2-25.5-23.3-25.5h-4.4V462.5z M468.7,445.1h6.7c9.3,0,13-6.4,13-12.7c0-7.3-5.5-12.5-14-12.5h-5.8V445.1z"/>
		<path fill="#1D3259" d="M560.1,473c-3.1,0.9-12.9,1.3-15.4,1.3c-24.3,0-32.4-14.6-32.4-27.4c0-19.6,14.8-30.5,28.4-30.5
			c7.8,0,10.8,2.6,15,2.6c1.7,0,2.5-0.5,3.1-1.8h1.7v16.3h-1.5c-1.4-10.5-10.8-14.9-18.3-14.9c-11.4,0-19.9,9.9-19.9,25
			c0,16.2,9.6,28.1,22.7,28.1c3.9,0,9.2-1,9.2-5.9v-6c0-6.7-1.5-9.2-6.1-9.2h-2.1v-1.6H567v1.6c-5.4,0-6.8,2.6-6.8,7.4V473z"/>
		<path fill="#1D3259" d="M587.9,446.6v16c0,6.6,1.6,8.8,6.4,8.8v1.6h-19.9v-1.6c4.2,0,6.3-1.4,6.3-8.8v-34.4c0-6.6-1.3-8.8-6.3-8.8
			v-1.6h19.9v1.6c-4.3,0-6.4,1.7-6.4,8.8v15.7h30.1v-15.7c0-6.7-1.4-8.8-6.2-8.8v-1.6h19.8v1.6c-4.7,0-6.3,2.2-6.3,8.8v34.4
			c0,6.6,1.5,8.8,6.3,8.8v1.6h-19.8v-1.6c4.3,0,6.2-1.4,6.2-8.8v-16H587.9z"/>
	</g>
	<g>
		<path fill="none" d="M472.9,128.3c0,70.8-57.4,128.3-128.3,128.3c-70.8,0-128.3-57.4-128.3-128.3C216.3,57.4,273.8,0,344.6,0
			C415.4,0,472.9,57.4,472.9,128.3z"/>
		<g>
			<g>
				<path fill="#1D3259" d="M235.4,102.5c2.2,0.5,2.9,0.2,3.3-1.4l0.5,0.1l-1.5,6.6l-0.5-0.1c0.3-1.3,0.1-2.2-2.5-2.8l-14.1-3.2
					l-0.6,2.7c-0.6,2.5-0.1,3.8,1.8,4.4l-0.1,0.5l-4.2-0.9l0.1-0.6c0.3-0.2,0.5-0.5,0.7-0.9c0.2-0.4,0.4-1,0.6-1.7l2.2-9.7
					c0.4-1.6,0.3-2.4,0-3.1l0.1-0.6l4.2,0.9l-0.1,0.4c-1.6,0-2.9,0.4-3.5,3.3l-0.6,2.8L235.4,102.5z"/>
				<path fill="#1D3259" d="M236.4,81.4l4.9,2.4c2.1,1,3,0.8,3.7-0.6l0.5,0.2l-3,6.2l-0.5-0.2c0.6-1.3,0.5-2.2-1.8-3.3l-10.7-5.2
					c-2-1-2.9-0.9-3.7,0.6l-0.5-0.2l3-6.2l0.5,0.2c-0.7,1.3-0.4,2.2,1.8,3.3l4.9,2.4l4.5-9.3l-4.9-2.4c-2.1-1-2.9-0.9-3.6,0.6
					l-0.5-0.2l3-6.1l0.5,0.2c-0.7,1.5-0.3,2.3,1.8,3.3l10.7,5.2c2,1,2.9,0.8,3.7-0.6l0.5,0.2l-3,6.1l-0.5-0.2
					c0.7-1.3,0.5-2.1-1.8-3.2l-4.9-2.4L236.4,81.4z"/>
				<path fill="#1D3259" d="M258.9,50.1l-0.4,0.4c-1.5-0.7-1.9-0.6-3.1,0.9l-3,3.6l5.2,4.4c0.7,0.6,1.2,0.6,1.9-0.2l2.1-2.5
					c1.8-2.1,2.1-2.8,0.9-5.2l0.4-0.4l2.2,2.9l-8.8,10.5l-0.4-0.4c1-1.1,1-2-0.9-3.6l-9.1-7.6c-1.8-1.5-2.7-1.5-3.7-0.3l-0.4-0.4
					l8.8-10.5l2.4,2l-0.2,0.3c-1.9-1-2.4-0.6-3.8,1l-3.5,4.2l6.2,5.2l3.4-4.1c0.8-1,1-1.5-0.1-2.8l0.4-0.4L258.9,50.1z"/>
				<path fill="#1D3259" d="M294.5,28.7c-0.5,2.7-1.8,4.6-4,5.8c-4,2.3-7.2,0.3-8.8-2.5l-4.6-8.2c-1.2-2.2-2.1-2.3-3.4-1.6l-0.3-0.5
					l6-3.4l0.3,0.5c-1.4,0.8-1.6,1.6-0.4,3.7L284,31c1.4,2.5,3.9,3.6,6.7,2c1.9-1.1,3-3,3.2-5.4l-5.6-10c-1.1-1.9-1.9-2.3-3.2-1.6
					l-0.3-0.5l5.8-3.3l0.3,0.5c-1.4,0.8-1.5,1.7-0.4,3.7l5.8,10.3c1.2,2.2,2.1,2.3,3.4,1.6l0.3,0.5l-4.1,2.3L294.5,28.7z"/>
				<path fill="#1D3259" d="M324.7,21.2l-0.5,0.1L307,8.6l-0.1,0l3.3,12.9c0.5,1.9,1.4,2.3,3.1,1.9l0.1,0.5l-5.6,1.4l-0.1-0.5
					c1.5-0.4,2.2-1.1,1.5-3.7l-2.8-10.8c-0.5-2.1-1.4-3.1-3.6-2.7l-0.1-0.5l4.7-1.2l15.2,11.4l0.1,0l-2.8-10.8
					c-0.6-2.4-1.4-2.9-3-2.4l-0.1-0.5l5.6-1.4l0.1,0.5c-1.8,0.5-2.2,1.3-1.6,3.5L324.7,21.2z"/>
				<path fill="#1D3259" d="M340.2,16.1c0.1,2.3,0.7,3,2.3,2.9l0,0.6l-6.8,0.3l0-0.6c1.6-0.1,2.1-0.7,2-3.1l-0.6-11.8
					c-0.1-2.4-0.7-3-2.3-2.9l0-0.6l6.8-0.3l0,0.6c-1.6,0.1-2.1,0.8-2,3.1L340.2,16.1z"/>
				<path fill="#1D3259" d="M359.4,20.9l-0.5-0.1l-3.8-16.1c-0.6-2.4-0.9-3.4-2.7-3.7l0.1-0.6l6.8,0.9L359.2,2
					c-1.3-0.2-2.1,0.5-1.7,2l3,12.8l5.9-11.2c0.8-1.5,0.7-2.6-1.1-2.8l0.1-0.6l5.5,0.7l-0.1,0.6c-1.4-0.2-2.6,0.8-3.9,3.2
					L359.4,20.9z"/>
				<path fill="#1D3259" d="M389.4,21.2l-0.5-0.2c0.2-1.7,0-2-1.9-2.6l-4.4-1.6l-2.3,6.4c-0.3,0.9-0.1,1.3,0.9,1.7l3.1,1.1
					c2.6,1,3.3,1.1,5.2-0.9l0.5,0.2l-2,3l-12.9-4.7l0.2-0.5c1.4,0.5,2.2,0.3,3-2.1l4.1-11.2c0.8-2.2,0.5-3-1-3.6l0.2-0.5l12.9,4.7
					l-1.1,3l-0.3-0.1c0.3-2.1-0.3-2.5-2.2-3.2l-5.1-1.9l-2.8,7.6l5,1.8c1.2,0.4,1.8,0.4,2.6-1l0.5,0.2L389.4,21.2z"/>
				<path fill="#1D3259" d="M411,20l1.7,1.1c2.4,1.6,3,4.1,1.6,6.3c-1.2,1.8-3.5,3-6.1,1.2l-1.9-1.3L411,20z M405.8,27.9l1.3,0.8
					c2.9,1.9,1.3,6.2,1.9,11.8l3.2,2.1l0.3-0.5c-2.5-1.9,0-7.8-1.8-11.7c2.8,0.8,4.7,0,5.8-1.8c1.4-2.1,1-5.3-2.6-7.6l-6.5-4.3
					l-0.3,0.5c1.3,0.8,1.5,1.6,0.2,3.7l-6.6,9.9c-1.4,2.1-2.2,2.1-3.5,1.3l-0.3,0.5l5.7,3.8l0.3-0.5c-1.3-0.9-1.4-1.8-0.1-3.7
					L405.8,27.9z"/>
				<path fill="#1D3259" d="M436,45.1l-0.4-0.4c1.8-2.2,1.2-4.4-0.2-5.8c-1.4-1.4-3.2-1.7-4.4-0.4c-2.5,2.5,0.2,6.6,0.2,10.4
					c0,1.9-0.6,3-1.5,3.8c-2.1,2.1-5.6,2.1-7.7-0.1c-1.4-1.4-1.9-3.3-2.3-3.8c-0.2-0.2-0.6-0.2-1,0l-0.4-0.4l3.7-3.6l0.4,0.4
					c-2.5,2.5-1.3,5.4-0.1,6.5c1.6,1.6,3.6,1.8,5.1,0.3c2.3-2.3-0.2-7-0.1-10c0-1.6,0.6-2.9,1.7-4c2.1-2,5-2,7.1,0.2
					c1.4,1.4,1.6,2.6,2.1,3.2c0.2,0.2,0.3,0.2,0.7,0l0.4,0.4L436,45.1z"/>
				<path fill="#1D3259" d="M437.7,65.5c-1.9,1.3-2.2,2.2-1.3,3.5l-0.5,0.3l-3.9-5.6l0.5-0.3c0.9,1.3,1.7,1.4,3.7,0.1l9.7-6.7
					c2-1.4,2.2-2.2,1.2-3.5l0.5-0.3l3.9,5.6l-0.5,0.3c-0.9-1.3-1.8-1.4-3.7-0.1L437.7,65.5z"/>
				<path fill="#1D3259" d="M447.1,82.7c-2.1,1-2.5,1.6-1.8,3.1l-0.5,0.2l-2.8-6.1l0.5-0.2c0.6,1.2,1.3,1.8,3.6,0.7l13.2-6l-1.1-2.5
					c-1.1-2.3-2.2-3.1-4.1-2.4l-0.2-0.5l4-1.8l0.2,0.5c-0.1,0.3-0.1,0.7-0.1,1.2c0.1,0.4,0.3,1,0.6,1.7l4.1,9
					c0.7,1.5,1.2,2.1,1.9,2.5l0.3,0.5l-4,1.8l-0.2-0.3c1.3-1,2.1-2,0.8-4.8l-1.2-2.6L447.1,82.7z"/>
				<path fill="#1D3259" d="M454.6,105.8c-2.2,0.5-2.9,1.1-2.5,2.7l-0.6,0.1l-1.4-6.8l0.5-0.1c0.3,1.4,0.8,2.2,3.4,1.6l5.8-1.3
					l5.3-5.3c1.8-1.7,2.1-2.4,1.8-3.8l0.5-0.1l1.6,7.3l-0.6,0.1c-0.4-2-1.2-2.1-2.2-1.1l-4.9,4.9l5.3,2c1.7,0.6,3,0.4,2.7-1.2
					l0.6-0.1l1.1,5.1l-0.5,0.1c-0.4-1.4-0.9-1.8-2.7-2.5l-7.5-2.8L454.6,105.8z"/>
				<path fill="#1D3259" d="M229.1,154c5.3-1.5,9.6,0.2,10.9,4.5c1.1,3.8-1.3,7.7-7,9.4c-4.4,1.3-9.5,0.1-10.8-4.5
					C221,159.4,223.8,155.6,229.1,154z M228.3,151.2c-5.4,1.6-8.4,7.1-6.9,12.5c1.6,5.4,7,8.5,12.5,7c5.3-1.5,8.3-7,6.7-12.4
					C239,152.7,233.7,149.7,228.3,151.2z"/>
				<path fill="#1D3259" d="M235.9,188.1c-2,1.1-2.3,2-1.5,3.4l-0.5,0.3l-3.4-5.9l0.5-0.3c0.8,1.4,1.6,1.5,3.7,0.4l10.3-5.9
					c2.1-1.2,2.3-2,1.6-3.4l0.5-0.3l6.5,11.3l-2.9,1.7l-0.2-0.4c1.8-1.6,1.6-2.1,0.6-3.9l-2.4-4.2l-6.9,3.9l2.4,4.3
					c0.7,1.2,1.6,1.3,3,0.7l0.3,0.5l-4.6,2.6l-0.3-0.5c1.1-0.7,1.5-1.7,0.9-2.9l-2.5-4.4L235.9,188.1z"/>
				<path fill="#1D3259" d="M272.4,224.8l-0.4-0.4c0.7-1.5,0.6-1.9-0.9-3.1l-3.6-3l-4.3,5.3c-0.6,0.7-0.6,1.2,0.3,1.9l2.6,2.1
					c2.2,1.8,2.8,2.1,5.2,0.9l0.4,0.4l-2.9,2.2l-10.6-8.7l0.4-0.4c1.2,1,2,1,3.6-0.9l7.5-9.2c1.5-1.8,1.5-2.7,0.2-3.7l0.4-0.4
					l10.6,8.7l-2,2.5l-0.3-0.2c1-1.9,0.6-2.4-1-3.8l-4.2-3.5l-5.2,6.3l4.1,3.4c1,0.8,1.5,1,2.8-0.1l0.4,0.4L272.4,224.8z"/>
				<path fill="#1D3259" d="M294,225.4l3.3,1.5c5.5,2.5,5.6,7.6,3.7,11.8c-2.2,4.7-6.1,6.5-10.4,4.5l-1.8-0.8
					c-1.6-0.7-2-1.5-0.7-4.2L294,225.4z M285.6,237.7c-1,2.1-1.8,2.5-3.2,1.8l-0.2,0.5l8.2,3.8c6.8,3.1,11.4,0.4,13.4-4
					c2.1-4.5,1-10.4-5.6-13.4l-8-3.7l-0.2,0.5c1.4,0.7,1.7,1.6,0.7,3.6L285.6,237.7z"/>
				<path fill="#1D3259" d="M319,249.7c-0.5,2.3-0.1,3.1,1.5,3.4l-0.1,0.5l-6.7-1.5l0.1-0.6c1.5,0.3,2.2-0.1,2.8-2.5l2.5-11.6
					c0.5-2.3,0.1-3.1-1.5-3.4l0.1-0.6l6.7,1.5l-0.1,0.6c-1.6-0.3-2.3,0.2-2.8,2.5L319,249.7z"/>
				<path fill="#1D3259" d="M353.4,255.8l-0.6,0l-13.6-16.4l-0.1,0l0.1,13.3c0,1.9,0.8,2.6,2.5,2.6l0,0.6l-5.8,0.1l0-0.6
					c1.6,0,2.4-0.5,2.3-3.3l-0.1-11.1c0-2.1-0.6-3.3-2.9-3.5l0-0.6l4.9-0.1l12,14.7l0.1,0l-0.1-11.1c0-2.5-0.7-3.1-2.3-3.1l0-0.6
					l5.7-0.1l0,0.6c-1.9,0-2.4,0.8-2.4,3L353.4,255.8z"/>
				<path fill="#1D3259" d="M373.3,242.2l-2.1-7.8l1.8-0.5c3-0.8,4.8,0.4,5.5,2.7c0.6,2.3-0.6,4.3-3.3,5L373.3,242.2z M372.6,249.3
					c0.6,2.2,0.3,3.1-1.3,3.5l0.1,0.5l8.4-2.3c3.5-0.9,5.4-3.3,4.7-6.1c-0.7-2.5-3.2-4-6.1-3.8l0-0.1c2.3-1.5,3.1-3.2,2.5-5.2
					c-0.6-2.3-3.2-3.9-7.6-2.7l-6.9,1.9l0.1,0.5c1.5-0.4,2.2,0,2.9,2.3L372.6,249.3z M373.5,242.9l1.7-0.5c3.2-0.9,5.8,0.4,6.5,3.1
					c0.7,2.7-0.7,4.4-2.5,4.9l-1.5,0.4c-1.4,0.4-2.1-0.1-2.7-2.6L373.5,242.9z"/>
				<path fill="#1D3259" d="M412,233.7c-0.5,2.8-1.7,4.6-3.9,5.9c-4,2.3-7.2,0.5-8.9-2.4l-4.7-8.1c-1.3-2.2-2.1-2.3-3.4-1.5
					l-0.3-0.5l5.9-3.5l0.3,0.5c-1.3,0.8-1.6,1.6-0.4,3.7l4.9,8.3c1.5,2.5,3.9,3.5,6.7,1.9c1.9-1.1,3-3,3.1-5.5l-5.8-9.9
					c-1.1-1.9-1.9-2.3-3.3-1.6l-0.3-0.5l5.8-3.4l0.3,0.5c-1.4,0.8-1.5,1.7-0.3,3.7l6,10.2c1.2,2.1,2.1,2.3,3.4,1.5l0.3,0.5l-4,2.4
					L412,233.7z"/>
				<path fill="#1D3259" d="M419.6,207.9l1.4-1.4c2-2.1,4.7-2.2,6.4-0.4c1.6,1.5,2.2,4,0,6.3l-1.6,1.7L419.6,207.9z M426.4,214.6
					l1.1-1.1c2.4-2.5,6.3,0,11.9,0.5l2.7-2.8l-0.4-0.4c-2.4,2.1-7.7-1.5-11.8-0.6c1.4-2.6,0.9-4.6-0.6-6.1c-1.8-1.8-5-2-8,1
					l-5.5,5.6l0.4,0.4c1.1-1.1,1.8-1.2,3.6,0.5l8.5,8.4c1.8,1.8,1.7,2.6,0.6,3.7l0.4,0.4l4.8-4.9l-0.4-0.4c-1.1,1.1-2,1-3.7-0.6
					L426.4,214.6z"/>
				<path fill="#1D3259" d="M457.6,188.1c-0.3,1.1-1.9,4-2.4,4.8c-4.4,7.1-10.1,6.9-13.8,4.6c-5.7-3.5-6.3-9.8-3.9-13.8
					c1.4-2.3,2.7-2.7,3.5-4c0.3-0.5,0.3-0.8,0-1.2l0.3-0.5l4.8,2.9l-0.3,0.5c-3.3-1.5-6.3,0.5-7.7,2.7c-2,3.3-0.7,7.6,3.8,10.4
					c4.8,2.9,10,2.2,12.4-1.6c0.7-1.2,1.4-2.9-0.1-3.8l-1.7-1.1c-2-1.2-3-1.2-3.8,0.1l-0.4,0.6l-0.5-0.3l4-6.6l0.5,0.3
					c-1,1.6-0.5,2.5,1,3.3L457.6,188.1z"/>
				<path fill="#1D3259" d="M457.1,166.2l5.3,1.5c2.2,0.6,3.1,0.3,3.5-1.3l0.5,0.2l-1.9,6.6l-0.5-0.2c0.4-1.4,0.1-2.2-2.3-2.9
					l-11.4-3.3c-2.2-0.6-3-0.4-3.5,1.2l-0.5-0.2l1.9-6.6l0.5,0.2c-0.4,1.4,0,2.3,2.3,2.9l5.2,1.5l2.9-9.9l-5.2-1.5
					c-2.2-0.6-3-0.4-3.5,1.2l-0.5-0.2l1.9-6.5l0.5,0.2c-0.5,1.6,0.1,2.3,2.3,2.9l11.4,3.3c2.2,0.6,3,0.3,3.5-1.2l0.5,0.2l-1.9,6.5
					l-0.5-0.2c0.4-1.4,0.1-2.2-2.3-2.9l-5.3-1.5L457.1,166.2z"/>
				<path fill="#1D3259" d="M227.4,130c0,0.9-0.8,1.7-1.7,1.7c-0.9,0-1.7-0.8-1.7-1.7c0-0.9,0.8-1.7,1.7-1.7
					C226.7,128.3,227.4,129.1,227.4,130z"/>
				<path fill="#1D3259" d="M465.1,130c0,0.9-0.8,1.7-1.7,1.7c-0.9,0-1.7-0.8-1.7-1.7c0-0.9,0.8-1.7,1.7-1.7
					C464.4,128.3,465.1,129.1,465.1,130z"/>
			</g>
			<g>
				<path fill="#1D3259" d="M393.3,216.3c1.3-0.7,2.6-1.6,3.9-2.4c1.1-0.7,2.2-1.3,3.3-2c1-0.7,1.9-1.6,2.9-2.3
					c1.1-0.8,2.1-1.5,3.2-2.3c0.2-0.2,0.4-0.4,0.7-0.6c0.3-0.1,0.5-0.3,0.7-0.4c0.9-0.7,1.8-1.5,2.7-2.3c0.7-0.6,1.2-1.3,1.9-2
					c0.7-0.6,1.5-1.2,2.2-1.8c0.3-0.3,0.5-0.6,0.7-0.9c0.6-0.6,1.2-1.1,1.7-1.7c0.4-0.5,0.7-0.9,1.1-1.4c1.3-1.3,2.5-2.6,3.6-4.1
					c0.9-1.1,1.8-2.1,2.7-3.2c0.6-0.8,1.2-1.7,1.8-2.5c0.3-0.3,0.6-0.7,0.9-1c1-1.3,1.9-2.7,2.9-4c0.3-0.5,0.5-0.9,0.7-1.4
					c0.2-0.3,0.4-0.6,0.6-0.9c0.2-0.4,0.4-0.8,0.5-1.2c0.6-1.1,1.2-2.2,1.9-3.3c0.5-0.9,1-1.7,1.5-2.6c0.4-0.9,0.7-1.8,1.1-2.7
					c0.4-0.9,0.9-1.8,1.3-2.8c1.5-4,2.9-7.9,4.1-12c0.1-0.5,0.2-1,0.3-1.5c0.3-1.5,0.7-3,1-4.6c0.1-0.8,0.2-1.6,0.3-2.4
					c0.2-1.3,0.5-2.7,0.7-4c0.1-1,0.2-2.1,0.2-3.2c0.1-0.4,0.2-0.8,0.2-1.2c0-0.9,0.1-1.8,0.1-2.6c0-0.4,0.2-0.9,0.2-1.3
					c0-0.6,0-1.2,0-1.8c0.3-4,0.3-8.3,0.1-12.2c-0.1-2.1-0.6-4.1-0.8-6.1c-0.2-2.1-0.4-4.2-0.8-6.2c-1.2-5.6-2.7-11-4.7-16.2
					c-0.3-0.7-0.7-1.4-1-2.2c-0.6-1.5-1.3-3-2.1-4.4c-0.2-0.4-0.5-0.8-0.7-1.3c-0.6-1.3-1-2.7-1.7-3.9c-0.4-0.8-0.9-1.4-1.4-2.2
					c-0.4-0.8-0.8-1.6-1.1-2.4c-1.4-2.2-2.9-4.3-4.3-6.5c-0.6-0.6-1.1-1.3-1.7-1.9c-0.6-0.8-1.2-1.6-1.8-2.4
					c-0.6-0.6-1.2-1.1-1.8-1.7c-0.3-0.4-0.5-0.8-0.8-1.2c-0.5-0.5-0.9-1-1.4-1.5c-0.3-0.3-0.6-0.5-0.8-0.8c-0.7-0.8-1.4-1.6-2.1-2.4
					c-0.6-0.6-1.3-1.2-1.9-1.8c-0.6-0.6-1.2-1.2-1.8-1.8c-0.8-0.7-1.7-1.3-2.5-2c-0.9-0.8-1.7-1.5-2.6-2.3c-0.6-0.4-1.2-0.7-1.8-1.1
					c-0.7-0.5-1.5-1.1-2.2-1.6c-0.6-0.4-1-0.8-1.6-1.3c-0.4-0.2-0.8-0.5-1.2-0.7c-0.5-0.4-1.1-0.8-1.6-1.2c-1.8-1.1-3.7-1.9-5.6-2.9
					c-0.7-0.4-1.4-0.9-2-1.3c-1.2-0.6-2.3-1.2-3.5-1.8c-1-0.5-2-0.8-2.9-1.2c-0.5-0.3-1-0.5-1.4-0.8c-0.4-0.1-0.7-0.3-1.1-0.4
					c-0.6-0.3-1.2-0.5-1.8-0.8c-1.8-0.7-3.8-1.1-5.7-1.7c-0.9-0.3-1.8-0.6-2.7-0.9c-2-0.6-4-0.9-6-1.3c-1.3-0.3-2.7-0.7-4-0.9
					c-0.9-0.1-1.8-0.2-2.6-0.4c-1.4-0.3-3.1-0.6-4.6-0.7c-0.6,0-1.2,0-1.8,0c-0.4-0.1-0.8-0.1-1.2-0.2c-0.8,0-1.6,0-2.4,0
					c-1.8-0.1-3.7-0.3-5.5-0.3c-0.7,0.2-1.7,0.1-2.6,0.1c-1,0-1.9,0-2.9,0c-0.3,0-0.5,0.1-0.8,0.1c-0.7,0-1.3,0-2,0.1
					c-0.4,0.1-0.7,0.2-1.1,0.3c-0.3,0-0.7,0.1-1,0.1c-0.3,0-0.7,0-1,0.1c-0.2,0-0.4,0.1-0.6,0.1c-0.4,0-0.9,0-1.2,0.2
					c-0.9,0-2.3,0.1-3.1,0.5c-0.2,0-0.4,0.1-0.6,0.1c-0.6,0-1.4,0.1-1.8,0.3c-1.6,0-2.8,0.6-4.2,1c-0.7,0.2-1.6,0.3-2.3,0.6
					c-0.6,0-1.3,0.1-1.8,0.4c-1,0-1.8,0.6-2.7,0.9c-0.5,0.2-1.1,0.2-1.6,0.5c-1,0-1.8,0.6-2.7,0.9c-0.6,0.2-1.1,0.5-1.7,0.7
					c-3,1.3-6,2.7-8.9,4.2c-0.5,0.3-1,0.6-1.5,0.9c-3.5,1.8-6.9,3.7-10,6.2c-0.9,0.6-1.8,1.3-2.7,1.9c-0.5,0.4-1,0.9-1.4,1.3
					c-0.9,0.6-1.8,1.2-2.7,1.9c-1.7,1.5-3.4,3.1-5,4.7c-1,0.9-2,1.8-3,2.7c-0.3,0.4-0.7,0.8-1,1.2c-0.5,0.4-0.9,0.8-1.4,1.3
					c-0.7,0.7-1.2,1.6-1.9,2.3c-0.6,0.6-1.2,1.2-1.7,1.9c-0.2,0.3-0.5,0.7-0.7,1c-1.1,1.2-2.1,2.3-3,3.6c-0.6,1-1.2,1.9-1.9,2.9
					c-0.9,1.2-1.9,2.6-2.6,3.9c-0.2,0.4-0.4,0.8-0.6,1.2c-0.6,1-1.2,2-1.8,3c-0.5,1-0.9,2.2-1.4,3.2c-0.2,0.4-0.5,0.8-0.7,1.2
					c-0.5,0.9-0.9,1.9-1.5,2.8c-0.2,0.6-0.5,1.2-0.7,1.8c-0.3,0.6-0.6,1.2-0.9,1.9c-0.2,0.7-0.5,1.4-0.7,2.2
					c-0.3,0.8-0.6,1.5-0.9,2.3c-1.5,4.8-2.7,9.6-3.8,14.7c-0.1,1-0.2,1.9-0.3,2.9c-0.1,1.1-0.5,2.3-0.6,3.4c-0.1,0.9,0,1.8-0.3,2.6
					c-0.1,0.7-0.1,1.3-0.2,2c-0.2,4.1,0,8,0.1,12c0.1,1.9,0.4,3.8,0.6,5.7c0,0.8,0.1,1.6,0.1,2.5c0.3,2.6,0.7,5.2,1.1,7.7
					c0.2,0.6,0.4,1.3,0.5,1.9c0.4,2,0.9,4,1.5,5.9c0.2,0.4,0.3,0.9,0.5,1.3c0.1,0.5,0.2,0.9,0.3,1.4c0.8,2.1,1.5,4.3,2.3,6.4
					c0.4,0.8,0.8,1.6,1.1,2.4c0.2,0.5,0.3,1.1,0.6,1.6c0.6,1.4,1.4,2.6,2.1,3.9c0.5,1.1,1.2,2.1,1.7,3.2c0.2,0.4,0.3,0.8,0.5,1.2
					c0.2,0.2,0.4,0.5,0.6,0.7c0.2,0.4,0.4,0.9,0.6,1.3c0.5,0.9,1.1,1.8,1.8,2.6c0.4,0.5,0.7,1,1.1,1.5c0.5,0.7,1.1,1.3,1.6,2
					c0.4,0.6,0.8,1.1,1.1,1.7c0.7,0.9,1.4,1.7,2.2,2.6c0.6,0.8,1.2,1.5,1.8,2.3c0.7,0.8,1.5,1.6,2.2,2.3c0.6,0.7,1.1,1.5,1.8,2.2
					c1,0.9,2,1.9,2.9,2.8c0.5,0.5,1,1,1.5,1.5c0.8,0.7,1.8,1.2,2.5,2c0.8,0.7,1.5,1.5,2.3,2.2c0.6,0.4,1.1,0.8,1.7,1.3
					c0.7,0.6,1.3,1.3,2,1.8c0.9,0.6,1.7,1.3,2.6,1.8c0.6,0.4,1.3,0.5,1.8,0.9c0.7,0.5,1.4,1,2.1,1.4c0.7,0.4,1.4,0.8,2.1,1.2
					c2.6,1.6,5.2,3,7.9,4.3c1.2,0.6,2.3,1.3,3.6,1.7c1.2,0.5,2.3,0.9,3.5,1.4c0.4,0.1,0.9,0.2,1.3,0.4c1.2,0.4,2.3,0.9,3.5,1.3
					c0.3,0.1,0.6,0.2,0.9,0.3c1,0.4,2,0.8,3,1.1c1.3,0.2,2.5,0.5,3.8,0.7c1.9,0.4,3.8,1,5.7,1.3c0.7,0.1,1.4,0.1,2.1,0.2
					c0.9,0.1,1.9,0.3,2.8,0.4c0.7,0,1.5,0.1,2.2,0.1c0.5,0.1,0.9,0.1,1.4,0.2c0.5,0,1,0,1.5,0c1.1,0.2,2.3,0.3,3.4,0.5
					c0.6,0,1.2,0.1,1.8,0.1c0.4,0,0.7-0.1,1.1-0.1c1,0,2.3,0.1,3.3,0.2c0.7,0,1.3,0,1.9,0c1.3,0.1,2.6-0.2,3.8-0.4
					c0.5,0,1.1,0,1.7-0.1c0.7-0.1,1.6-0.2,2.3-0.3c2.7-0.2,5.4-0.6,8-1.1c0.9-0.2,1.8-0.5,2.7-0.7c1.1-0.2,2.2-0.4,3.3-0.7
					c0.6-0.2,1.1-0.5,1.6-0.7c0.9-0.3,1.8-0.5,2.7-0.8c0.4-0.1,0.8-0.3,1.2-0.4c0.7-0.2,1.2-0.2,1.9-0.4c1.3-0.5,2.7-0.9,4-1.4
					c0.8-0.4,1.6-0.7,2.4-1.1c0.8-0.3,1.5-0.6,2.3-1c0.2-0.1,0.4-0.3,0.6-0.4c0.8-0.4,1.6-0.8,2.4-1.2c0.9-0.5,1.8-1,2.7-1.5
					C392.4,216.7,392.9,216.5,393.3,216.3z"/>
				<g>
					<path fill="#FFFFFF" d="M343.5,220.4C343.5,220.4,343.5,220.4,343.5,220.4C343.4,220.4,343.4,220.3,343.5,220.4
						c-0.2-0.1-0.3-0.3-0.4-0.4c-0.3-0.5-0.7-1.1-1-1.6c-0.7-0.8-1.4-1.7-2.1-2.5c-2.1-2-4.6-3.8-7.2-4.9c-0.5-0.2-1.1-0.4-1.6-0.6
						c-0.6-0.3-1.2-0.6-1.8-0.8c-0.6-0.2-1.2-0.3-1.8-0.4c-0.6-0.1-1.3-0.3-1.9-0.4c-1.3-0.3-2.7-0.7-4-0.9
						c-1.3-0.2-2.6-0.3-3.9-0.5c-1-0.1-2.1,0-3.1-0.1c-4.8-0.5-9.5-0.9-14.1-1.7c-1.6-0.3-3.1-0.3-4.6-0.5c-1.5-0.3-3.1-0.7-4.5-1.2
						c-0.8-0.3-1.6-0.4-2.4-0.7c-0.8-0.3-1.5-0.7-2.3-1c-0.5-0.2-1.1-0.5-1.6-0.7c-0.4-0.2-0.7-0.5-1.1-0.7
						c-0.2-0.1-0.4-0.2-0.5-0.3c-1.3-1-2.2-2.4-3.2-3.6c-0.7-0.9-1.1-2-1.5-3.2c-0.2-0.6-0.3-1.1-0.5-1.7c-0.6-2.6-0.5-5.4-0.5-8.3
						c0-0.6-0.1-1.1-0.1-1.7c0.1-2.1,0.2-4.3,0.3-6.4c0-0.5,0-0.9-0.1-1.4c0-2.1,0-4.3,0-6.4c0-1.4,0.1-2.8,0.1-4.1
						c-0.1-5.8,0-11.6,0.2-17.4c0-0.8-0.1-1.6-0.1-2.5c0-0.9,0.1-1.8,0.1-2.6c0-0.4,0-0.8,0-1.2c0.1-1.3,0.2-2.6,0.3-3.9
						c0-1-0.1-2-0.1-3c0-0.7,0.1-1.5,0.1-2.2c0-0.6-0.2-1.2-0.1-1.8c0-0.6,0.1-1.1,0.1-1.7c0-1.1-0.1-2.3-0.1-3.5
						c0-0.7,0.1-1.4,0.1-2.1c0-0.8-0.2-1.6-0.1-2.4c0.1-1,0.2-1.9,0.3-2.9c0-0.9-0.1-1.8-0.1-2.7c0-2,0.1-4.1,0.1-6.1
						c0-0.4,0-0.8,0-1.2c0-0.9-0.1-1.8-0.1-2.6c0.1-0.8,0.1-1.5,0.2-2.3c0.1-3.7,0.1-7.4,0.1-11c0-1.2,0-2.5,0-3.7
						c0-0.9-0.2-1.7-0.1-2.6c0-0.6,0.1-1.2,0.1-1.8c0-3.1-0.1-6.2,0-9.3c0-1.1,0.1-2.2,0.1-3.3c0-1.2-0.1-2.6-0.1-3.9
						c0-0.8,0.1-1.7,0.1-2.5c0-0.7-0.1-1.7,0.1-2.3c0-0.2,0.2-0.1,0.4-0.2c1.3-0.2,2.9-0.3,4.2-0.1c1.7,0.3,3.4,0,5.1,0
						c1.5,0,3.1,0,4.7,0c0.9,0,1.9-0.1,2.8-0.2c1.7,0,3.4,0.1,5.1,0.1c2.1,0,4.3,0,6.4,0c0.6,0,1.2,0.1,1.8,0.1
						c0.9,0,1.8-0.1,2.6-0.1c0.7,0,1.4,0.2,2.2,0.2c1,0,1.9-0.1,2.8-0.1c1.4,0,3,0,4.5,0.1c0.7,0.1,1.4,0.1,2.1,0.2
						c2.1,0,4.2-0.1,6.2-0.1c1.4,0,2.8,0.1,4.1,0.1c1.2,0,2.3-0.2,3.5-0.2c0.8,0,1.8,0.1,2.6,0.1c0.8,0,1.6,0,2.4,0
						c0.9,0.1,1.8,0.1,2.7,0.2c0.7,0,1.4-0.1,2.1-0.1c1.4,0.1,2.7,0.1,4.1,0.2c0.6,0,1.3-0.1,1.9-0.2c3.8-0.1,7.3,0,11.1,0
						c0.8,0,1.6-0.1,2.5-0.2c1.7,0,3.5,0.1,5.1,0c0.4,0,0.7-0.1,1.1-0.1c1.4,0.1,3.1,0,4.6,0c0.6,0,1.1,0.2,1.8,0.2
						c0.7,0,1.4,0,2-0.1c1.1,0,2.3,0.2,3.4,0.2c0.8,0,1.5-0.2,2.3-0.1c0.6,0,1.1,0.1,1.7,0.2c0.8,0,1.7-0.1,2.5,0
						c0.6,0.1,1.1,0.2,1.7,0.2c0.5,0,0.9,0,1.4-0.1c0.5,0,1,0.1,1.5,0.1c0.5,0,1,0,1.5-0.1c0.9,0,1.8,0.1,2.7,0
						c1.4-0.1,2.8,0.1,4.3,0.1c0.7,0,1.4-0.1,2.1-0.1c0.5,0,0.9,0.1,1.4,0.1c0.4,0,1-0.1,1.4,0.1c0,0,0.1,0.1,0.1,0.1
						c0.3,0.5,0.2,1.3,0.2,1.9c0,2-0.1,3.9,0,5.9c0,1.2,0,2.6,0,3.9c0,0.4,0,0.8-0.1,1.2c0,0.9,0.1,1.8,0.1,2.6
						c0,0.9-0.1,1.8-0.1,2.6c0.1,1.1,0.1,2.3,0.2,3.4c-0.1,0.4-0.1,0.9-0.2,1.3c0,0.8,0.1,1.5,0.1,2.2c0,0.8-0.1,1.5-0.1,2.3
						c0,0.9,0,1.9,0,2.8c0,0.7-0.1,1.4-0.2,2.1c0.1,1.1,0.2,2.3,0.2,3.4c0,0.4-0.1,0.8-0.1,1.2c0,0.9-0.1,1.9-0.1,2.8
						c0,1.6,0.2,3.4,0.2,5c0,0.4-0.1,0.7-0.1,1.1c0,0.7,0.1,1.5,0.1,2.2c0,0.8-0.1,1.8-0.1,2.7c0,0.7,0.1,1.3,0.1,1.9
						c0,0.4-0.1,0.7-0.1,1.1c0,0.5,0,0.9,0.1,1.4c0,1.8-0.2,3.5-0.2,5.3c0,0.9,0.1,1.8,0.1,2.6c0,0.4,0.1,0.7,0.1,1.1
						c0,0.6-0.1,1.2-0.1,1.8c0,0.4,0,0.8,0.1,1.1c-0.1,0.6-0.1,1.3-0.2,1.9c0,0.9,0.2,1.8,0.2,2.7c-0.1,2.6-0.2,5-0.3,7.6
						c0,1,0.2,2,0.2,3c-0.1,0.6-0.1,1.1-0.2,1.7c0,1.2,0,2.4,0,3.6c-0.1,0.6-0.1,1.3-0.2,1.9c0,2.4,0.1,4.9,0.1,7.3
						c0,1.7-0.2,3.5-0.2,5.2c0,0.9,0.1,1.8,0.1,2.7c0,0.4,0,0.7-0.1,1.1c0,0.6,0,1.3,0,1.9c0,1.6,0.1,3.1,0.1,4.6c0,1.8,0,3.8,0,5.7
						c0,0.5,0,1-0.1,1.6c0,0.3,0.1,0.6,0.1,1c-0.1,1.1-0.1,2.2-0.2,3.3c0,0.9,0.1,1.9,0,2.9c-0.1,0.6-0.2,1.2-0.3,1.8
						c-0.1,0.6-0.2,1.3-0.2,1.9c-0.2,1.1-1,2.7-1.6,3.6c-0.5,0.8-1.3,1.2-2,1.9c-0.4,0.4-0.8,0.6-1.2,1c-0.7,0.6-1.5,1.3-2.3,1.8
						c-0.5,0.2-1.1,0.4-1.6,0.6c-1.1,0.4-2.2,0.9-3.3,1.4c-1,0.4-2.1,0.7-3.2,1.1c-0.3,0.1-0.5,0.2-0.8,0.3c-0.6,0-1.3,0.3-1.8,0.5
						c-0.5,0-1,0.1-1.4,0.3c-0.7,0-1.3,0.2-1.9,0.4c-0.2,0.1-0.4,0.1-0.6,0.2c-0.3,0-0.6,0-0.9,0.2c-0.6,0-1.9,0.3-2.4,0.5
						c-0.5,0-1.1-0.1-1.6,0.1c-0.3,0-0.7,0-0.9,0.2c-0.5,0-1-0.1-1.4,0.2c-0.2,0-0.5,0.1-0.7,0.1c-0.4,0-0.8,0-1.1,0.2
						c-0.3,0-0.7,0-1,0.2c-0.6,0-1.5-0.1-2,0.2c-0.2,0-0.5,0-0.7,0.1c-0.6,0-1.3-0.2-1.8,0.1c-0.4,0-0.8,0-1.1,0.1
						c-0.2,0-0.4,0.1-0.5,0.1c-0.6,0-1.3-0.1-1.8,0.1c-0.2,0-0.5,0.1-0.7,0.1c-0.2,0-0.4,0.1-0.5,0.1c-0.2,0-0.4,0.1-0.5,0.1
						c-0.3,0-0.5,0.1-0.8,0.1c-0.4,0-0.8,0-1.1,0.2c-0.2,0-0.5,0.1-0.7,0.1c-0.4,0-0.9,0-1.1,0.2c-0.4,0-0.8,0-1,0.2
						c-0.3,0-0.7,0-0.9,0.2c-0.3,0-0.6,0-0.8,0.2c-0.2,0-0.3,0.1-0.5,0.1c-0.5,0-1,0.1-1.4,0.3c-0.3,0-0.6,0-0.8,0.2
						c-0.9,0-1.7,0.4-2.5,0.7c-0.6,0.2-1.2,0.4-1.8,0.7c-1.2,0-2.4,1.1-3.3,1.8c-0.8,0.6-1.7,0.9-2.5,1.6
						C345.8,215.3,344.6,217.9,343.5,220.4z"/>
					<path fill="#1D3259" d="M353.3,207.9c0.5-0.2,1.1-0.5,1.6-0.7c1.1-0.3,2.2-0.5,3.3-0.8c2.1-0.5,4.2-1,6.3-1.4
						c0.5,0,1-0.1,1.6-0.1c0.8-0.1,1.6-0.4,2.5-0.4c1.1,0,2.2-0.1,3.3-0.1c1.3-0.1,2.7-0.4,4.1-0.5c1.2-0.1,2.4-0.1,3.6-0.3
						c1.1-0.2,2.1-0.3,3.2-0.5c0.4,0,0.7,0,1-0.1c1.6-0.3,3.2-0.7,4.8-1c0.5-0.1,1-0.2,1.6-0.3c1.5-0.4,3-1,4.4-1.5
						c1.2-0.4,2.4-0.8,3.6-1.3c1-0.5,1.8-1.1,2.8-1.7c1.7-1,3.5-2.2,4.5-3.9c0.5-0.8,0.9-1.9,1-2.9c0-0.4,0.1-0.9,0.1-1.3
						c0.3-1.9,0.3-4,0.2-6c0-0.7,0.1-1.4,0.1-2.1c0-0.4,0-0.8-0.1-1.1c0-0.8,0-1.5,0-2.3c0-0.3-0.1-0.6-0.1-0.9
						c0-0.3,0.1-0.5,0.1-0.8c0-0.3-0.1-0.5-0.1-0.8c0-0.5,0.2-0.9,0.2-1.5c0-0.6-0.1-1-0.2-1.6c0-0.7,0.2-1.2,0.2-1.8
						c0-2.3,0-4.6,0.1-6.9c0-0.6,0-1.1-0.1-1.7c0-2,0-4,0-6.1c0.1-5.5,0-11.4,0.2-16.9c0-0.6-0.1-1.2-0.1-1.7c0-0.2-0.1-0.3-0.1-0.5
						c0-0.4,0.1-0.9,0.1-1.4c0-0.3-0.1-0.6-0.1-1c0-0.5,0.1-0.9,0.1-1.4c0-1-0.3-1.9-0.2-2.9c0-0.7,0.1-1.3,0.2-1.9c0-0.3,0-0.6,0-1
						c0-0.3,0.1-0.6,0.1-1c0-0.4-0.1-0.8-0.1-1.1c0.1-0.4,0.1-0.9,0.1-1.3c0-0.4-0.1-0.7-0.1-1.1c0-2.4,0-4.8,0-7.2
						c0-0.6,0.1-1,0.2-1.5c0-0.5-0.1-0.9-0.1-1.4c0-0.3,0.1-0.5,0.1-0.8c0-0.8,0.1-1.6,0.1-2.4c0-1.2,0-2.5-0.1-3.8
						c0-0.4-0.1-0.8-0.1-1.2c0-1,0.2-1.9,0.2-2.8c0-0.7-0.1-1.5-0.1-2.2c0-5.7-0.2-11.1,0-16.7c0-3.1,0-6.1,0.1-9.2
						c0.1-1.7-0.1-3.5-0.1-5.1c0-1.6,0-3.1,0-4.8c0,0-0.1,0-0.1,0c0-0.2-0.8-0.1-1,0c-1.6,0-3.3,0-4.9-0.1c-1.1-0.1-2.1-0.2-3.3-0.2
						c-0.3,0-0.7,0-1,0.1c-0.4,0-0.8,0.1-1.2,0.1c-0.6-0.1-1.2-0.1-1.8-0.2c-2,0-4.1,0-6.1,0c-0.6,0-2.1-0.2-2.5,0
						c-1.1,0-2.1,0-3.2,0c-0.8-0.1-1.9-0.4-2.7-0.1c-0.2,0-0.5,0.1-0.7,0.1c-0.8,0-1.5,0-2.3,0c-1.1-0.1-2.2-0.3-3.4-0.3
						c-0.9,0.3-2.1-0.2-3,0.2c-0.2,0-0.5,0.1-0.7,0.1c-0.9,0-1.8,0-2.7,0c-0.4,0-1-0.1-1.4,0.1c-0.3,0-0.7,0-0.9,0.1
						c-0.8,0-1.4-0.2-2.1-0.2c-1.8,0-3.6,0-5.4,0c-0.7,0-1.6-0.1-2.2,0.1c-0.2,0-0.4,0-0.6,0.1c-0.3,0-0.5,0.1-0.8,0.1
						c-1,0-2.7-0.5-3.6-0.2c-0.2,0-0.3,0.1-0.5,0.1c-0.4,0-0.8,0-1.1,0.2c-2.6,0-5.2,0-7.7-0.1c-0.7,0-1.4,0-2,0
						c-0.3,0-0.8-0.1-1.1,0c-0.7,0-1.3,0-1.9,0c-0.9-0.1-2.9-0.4-3.7-0.1c-0.6,0-1.2,0-1.8,0c-0.4,0-0.9-0.1-1.2,0
						c-0.5,0-1.2-0.1-1.7,0.1c-1,0-2-0.2-3.1-0.2c-0.3,0-0.8,0-1.1,0.1c-0.6,0-1.6-0.1-2.1,0.1c-1,0-2,0-3,0c-0.5,0-1.1-0.1-1.5,0.1
						c-1.3,0-2.5,0-3.8,0c-0.8-0.1-2.3-0.4-3.1-0.1c-0.8,0-2.2-0.3-2.8,0c-1.7,0-3.2-0.1-4.8-0.2c-0.6,0-1.5-0.2-2,0
						c-0.3,0-0.7,0-1,0.1c-0.6,0-1.5-0.1-2,0.1c-0.6,0-1.4-0.1-1.9,0.1c-2.1,0-4.3-0.1-6.5-0.1c-0.6,0-1.6-0.1-2.1,0.1
						c-0.8,0-2.5-0.2-3.2,0.1c-0.5,0-1.3-0.1-1.6,0.2c-0.5,0.5-0.2,2.8-0.2,3.5c0,0.6,0,1.2-0.1,1.8c0,0.5,0.1,1.1,0,1.7
						c0,0.8,0,1.6,0,2.5c-0.1,2.2-0.1,4.4-0.1,6.7c0,0.6-0.2,1.1-0.2,1.7c0,0.6,0.1,1.2,0.1,1.8c-0.1,0.6-0.1,1.1-0.2,1.7
						c0,1.2,0.1,2.3,0.1,3.5c-0.1,2-0.2,4.1-0.1,6.2c0,0.8,0.1,1.6,0.1,2.4c0,0.3,0.1,0.5,0.1,0.8c-0.1,0.5-0.1,1-0.2,1.5
						c0,3.6-0.1,7-0.1,10.6c0,1.6,0.1,3,0,4.6c-0.1,0.8-0.1,1.5-0.2,2.3c0,1.1,0,2.3,0.1,3.4c0,2.3-0.1,4.6-0.1,6.9
						c0,0.8,0.1,1.6,0.1,2.5c-0.1,1.1-0.1,2.1-0.2,3.2c0,4.2,0,8.5,0.1,12.7c0,1-0.2,1.9-0.2,3c0,1.1,0,2.2,0,3.3c0,0.5,0,1,0.1,1.5
						c-0.1,3.8-0.2,7.4-0.2,11.2c0,1.7-0.2,3.3-0.2,4.9c0,0.7,0,1.5,0,2.2c0,0.3,0.1,0.6,0.1,0.9c-0.1,0.3-0.1,0.6-0.1,0.9
						c0,0.8-0.1,1.7-0.1,2.5c0,1,0,2.2,0.1,3.3c0,0.5,0.2,0.9,0.2,1.4c0,0.5-0.2,0.9-0.2,1.4c0,0.6,0.2,1,0.2,1.7
						c0,4.5,0,8.9,2.1,12.4c1.4,2.4,4,3.8,6.4,4.9c1.6,0.7,3.3,1.5,5.1,1.9c1.3,0.3,2.6,0.5,4,0.7c1.1,0.2,2.2,0.5,3.3,0.6
						c1.1,0.1,2.1,0.2,3.2,0.2c2.3,0.3,4.5,0.7,6.8,1c1.1,0.1,2.2,0.1,3.2,0.2c0.5,0.1,0.9,0.2,1.4,0.3c0.8,0,1.7,0,2.5,0
						c0.9,0.1,1.8,0.2,2.7,0.3c0.5,0,0.9,0,1.4,0c0.4,0.1,0.8,0.2,1.2,0.3c1.2,0.2,2.2,0.3,3.4,0.5c0.4,0.1,0.7,0.2,1.1,0.4
						c0.8,0.2,1.5,0.4,2.3,0.7c1.1,0.4,2.2,0.8,3.3,1.2c0.8,0.4,1.6,0.8,2.4,1.2c0.4,0.3,0.9,0.6,1.3,0.9c0.9,0.5,1.8,0.9,2.6,1.6
						c1,0.8,1.7,1.8,2.5,2.7c0.3,0.3,0.4,0.7,0.8,0.9c0,0.1,0,0.1,0.2,0.1c0-0.2,0.4-0.4,0.6-0.6c0.2-0.3,0.4-0.6,0.5-0.8
						c1.9-2.8,4.8-4.8,7.7-6.4C352.4,208.2,352.9,208.1,353.3,207.9z"/>
					<g>
						<g>
							<path fill="#FFFFFF" d="M353.8,74.1C353.8,74.1,353.8,74.2,353.8,74.1c-0.1,0.1-0.2,0.1-0.3,0.1c0-0.3,0-0.6,0-0.9
								c0.1-0.9,0.8-1.3,1.3-1.9C355.8,72.2,354.4,73.5,353.8,74.1z"/>
							<path fill="#FFFFFF" d="M358.4,66.8c0.4-0.4,0.6-0.9,0.9-1.3c0.3-0.3,0.6-0.5,0.8-0.8c0.6,0.1,1.2,0.2,1.9,0.2
								c0,0.1,0,0.2,0,0.3c-0.9,0-3.4,3.1-4,3.9c-0.3,0.4-0.6,1.1-1,1.3c-0.3,0.1-0.6,0-0.8-0.1c-0.6-0.4-0.1-1,0-1.5
								c0.1-0.3,0.1-0.6,0.4-0.8c0.2-0.1,0.5-0.2,0.7-0.4C357.7,67.3,358.1,67.1,358.4,66.8z"/>
							<path fill="#FFFFFF" d="M352.4,68.9c0.1-0.5,0.1-0.9,0.4-1.4c0.3-0.5,1-0.7,1.4-1.1c0.4-0.3,0.5-0.8,0.8-1.2
								c0.3-0.4,0.7-0.5,1.2-0.7c0.3,0,0.7,0,1.1,0c0,0.4-0.6,0.9-0.8,1.2c-0.3,0.5-0.6,1-0.9,1.4c-0.3,0.5-0.7,0.9-1,1.4
								c-0.2,0.4-0.3,0.8-0.6,1.1c-0.2,0.2-0.4,0.3-0.6,0.5c-0.2,0.2-0.4,0.4-0.6,0.6c-0.2,0.2-0.4,0.4-0.6,0.6
								c-0.4,0.4-0.4,1.1-0.8,1.4c-0.4,0.3-1.2,0.6-1.8,0.4c-0.1,0-0.1,0-0.2,0c0-0.3,1.2-2.1,1.4-2.3c0.2-0.2,0.6-0.2,0.8-0.5
								c0.2-0.3,0.1-0.6,0.3-0.8C352,69.4,352.3,69.3,352.4,68.9z"/>
							<path fill="#FFFFFF" d="M345.8,67.7c0.1-0.4,0.5-0.7,0.6-1.2c0.2-0.5,0-0.9,0.3-1.4c0.4-0.4,2.6-0.1,3.4-0.5
								c0.5,0,0.9,0,1.4,0c0,0.1,0,0.1,0,0.2c-0.1,0-0.1,0.1-0.2,0.2c-0.7,1-1,2.1-1.5,3.2c-0.2,0.4-0.4,0.8-0.7,1.2
								c-0.2,0.4-0.4,0.8-0.5,1.3c-0.5,0.8-1.6,2.3-2.6,2.5c0,0,0-0.1,0-0.1c-0.2,0-0.1-0.8-0.1-1c-0.1-0.4-0.2-0.7-0.2-1.2
								c0-0.5,0.3-0.8,0.3-1.3C346,68.9,345.6,68.3,345.8,67.7z"/>
							<path fill="#FFFFFF" d="M338.8,64.7c0.3-0.3,1.6-0.1,2.1-0.3c0.6,0.2,2,0.2,2.6,0.2c0,0.4,0,0.8,0,1.2
								c0.1,0.3,0.1,0.6,0.2,0.9c-0.1,0.3-0.1,0.6-0.2,1c0,1.4-0.2,2.8-0.3,4.1c0,0.8,0.1,1.7,0.1,2.5c0,0-0.1,0-0.1,0
								c0,0,0-0.1,0-0.1c-1.1,0-2.4-3.4-2.8-4.2c-0.3-0.4-0.6-0.7-0.9-1.1C339,68,337.8,65.8,338.8,64.7z"/>
							<path fill="#FFFFFF" d="M331.7,65.4C331.7,65.4,331.7,65.4,331.7,65.4c0.2-0.6,1.6-0.6,2.1-0.9c0.5,0,1.2-0.1,1.6,0.1
								c1.2,0.6,1.7,2.4,2.2,3.6c0.3,0.7,0.8,1.5,1.1,2.2c0.2,0.4,0.5,0.8,0.7,1.2c0.2,0.4,0.2,0.8,0.2,1.3c0,0.3,0.1,0.9-0.2,1.1
								c-0.2,0.1-0.6,0.1-0.9,0c-0.5-0.2-6.8-8-6.8-8.4C331.7,65.5,331.7,65.5,331.7,65.4C331.7,65.4,331.7,65.4,331.7,65.4z"/>
							<path fill="#FFFFFF" d="M328.2,64.6c0.7,0.1,1,0.3,1.5,0.8c0.7,0.7,1.3,1.5,1.8,2.3c0.3,0.4,0.4,0.8,0.8,1.2
								c0.4,0.5,0.9,0.9,1.3,1.4c0.4,0.5,0.8,1,1.2,1.5c0.1,0.2,0.3,0.4,0.4,0.6c0.3,0.2,0.6,0.5,0.8,0.7c0.6,0.6,1.1,1.3,1.4,2
								c-0.1,0-0.1,0.1-0.2,0.3c-0.5,0-1.1-0.2-1.4-0.4c-0.6-0.6-1.1-1.2-1.7-1.7c-0.4-0.4-0.8-0.5-1.1-0.9
								c-0.6-0.8-1.1-1.8-1.8-2.5c-0.4-0.4-1-0.5-1.5-0.9c0,0,0,0,0,0c-0.5-0.5-0.6-1.1-1-1.6c-0.4-0.6-1.1-1-1.5-1.6
								c0,0,0-0.1-0.1-0.1c0,0,0,0,0-0.1C327.2,64.9,327.9,64.7,328.2,64.6z"/>
						</g>
						<g>
							<path fill="#FFFFFF" d="M347.9,82.9c0.2,0,0.5,0.1,0.8,0.1c0.8,0.3,1.4,1.4,1.1,2.2c-0.2,0.4-0.6,0.8-1,1.1
								c-0.3,0.2-0.6,0.5-1,0.5c-0.5-0.1-0.3-1.1-0.2-1.4c0.2-0.4,0.6-0.5,0.7-1C348.3,83.7,347.9,83.4,347.9,82.9z"/>
							<path fill="#FFFFFF" d="M349.1,79.3c-0.3,0.2-0.6,0.7-1,0.6c-0.5-0.1-0.8-0.8-1.1-1.1c-0.4-0.4-1.2-0.6-1.1-1.3
								c0-0.3,0.3-0.4,0.5-0.5c0,0,0-0.1,0-0.1c0.6,0.1,1,0.4,1.5,0.6c0.6,0.3,1.2,0.4,1.9,0.6c0.1,0,0.2,0.2,0.1,0.3
								C349.8,78.9,349.4,79.1,349.1,79.3z"/>
							<path fill="#FFFFFF" d="M348,90.1c-0.1,0.6-1.6,0.9-2.1,0.6c-0.7-0.5,0.7-1.4,1-1.6C347.3,89.2,348.1,89.6,348,90.1z"/>
							<path fill="#FFFFFF" d="M344.2,89.6c-0.2,0-0.4-0.2-0.5-0.3c-0.2-0.1-0.4-0.2-0.6-0.4c-0.5-0.5-0.3-1-0.3-1.7
								c0-0.3-0.1-0.8,0-1.1c0.1-0.3,0.4-0.4,0.6-0.6c0.3,0,0.5,0,0.7,0.2c0.3,0.2,2,1.9,2.1,2.1C346.2,88.5,344.7,89.5,344.2,89.6z
								"/>
							<path fill="#FFFFFF" d="M354.5,83.9c0,0.6-0.3,1.3-0.9,1.6c0,0.1-0.3-0.1-0.4-0.1C353.2,84.8,354,84.3,354.5,83.9
								C354.4,83.9,354.5,83.9,354.5,83.9z"/>
							<path fill="#FFFFFF" d="M352.8,82.8c-0.2,0.2-0.4,0.3-0.7,0.3c-0.3,0-0.4-0.2-0.5-0.5c-0.1-0.2,0-3.1,0-3.3
								c0.1-0.3,0.6-0.6,0.8-0.8c0.7,0.2,0.6,0.6,0.9,1.2C353.7,80.9,354,82,352.8,82.8z"/>
							<path fill="#FFFFFF" d="M351.7,87.9C351.8,87.9,351.8,87.9,351.7,87.9c0,0.5-1.1,1.2-1.5,0.9c-0.5-0.5,0.1-1,0.4-1.3
								C351.2,87.5,351.5,87.5,351.7,87.9z"/>
							<path fill="#FFFFFF" d="M343.7,78.6c0.3,0,0.6,0.1,0.9,0.1c0.5,0.2,2.3,1.6,2.1,2.3c-0.2,0.6-0.7,1-1.2,1.4
								c-0.5,0.4-1,1-1.7,1.1c-0.7,0.1-1.6-2.9-1.5-3.4C342.4,79.9,343.5,78.8,343.7,78.6C343.7,78.7,343.7,78.7,343.7,78.6z"/>
							<path fill="#FFFFFF" d="M341.7,85.7c-0.3,0.3-0.8,0.8-1.3,0.8c-0.4,0-0.5-0.2-0.8-0.4c-0.6-0.5-1-1.5-0.8-2.4
								c0.1-0.2,0.3-0.5,0.4-0.7c0.2-0.7,0.1-0.8,0.7-1.4c0.8,0.4,2.9,2,2.7,3C342.5,85.1,342,85.5,341.7,85.7z"/>
							<path fill="#FFFFFF" d="M342.1,90.6C342,90.6,342,90.6,342.1,90.6c-0.1,0.2-0.4,0.1-0.5,0c-1.3-0.3-2.8-0.6-1.7-2.2
								c0.2,0,0.4,0,0.5,0.2c0.3,0.2,0.4,0.6,0.6,0.9C341.4,89.8,341.9,90,342.1,90.6z"/>
							<path fill="#FFFFFF" d="M336,79.4c0,0,0.6-0.8,0.9-0.9c0,0,0-0.1,0-0.1c1.1,0.7,2,2,0.9,3.2c-0.2,0.2-0.6,0.5-0.9,0.6
								c-1,0.2-0.6-1.1-0.6-1.6C336.2,80.1,336.1,79.7,336,79.4z"/>
							<path fill="#FFFFFF" d="M338,77.7c0-0.1,0-0.2,0-0.3c0.2,0,0.4-0.1,0.5-0.1c1.1-0.2,1.8-0.3,2.7-0.8c0.3,0.1,0.7,0.1,0.9,0.4
								c0.5,0.8-1.8,2.3-2.5,2.3C338.9,79.1,338.5,78.2,338,77.7z"/>
							<path fill="#FFFFFF" d="M336.6,85c0.2,0,0.3,0.1,0.5,0.1c0.4,0.3,2,1.7,2,2.2c0,0.5-1.2,1.4-1.7,1.5
								c-0.4,0.1-0.4-0.3-0.6-0.5C336.5,87.3,336.2,86.2,336.6,85z"/>
							<path fill="#FFFFFF" d="M334.9,84.1c-0.9,0.2-0.7-1.4-0.6-2C334.8,82.3,336.1,83.8,334.9,84.1z"/>
						</g>
						<g>
							<path fill="#FFFFFF" d="M345.7,175.4c0-0.2,1.9-3,2.2-3.4c0.1-0.2,0.4-0.3,0.6-0.4c0,0,0-0.1,0-0.1c0.4,0,0.9,0,1.3,0
								c0,0.5-2.1,3.6-2.6,3.8C346.8,175.6,346.3,175.5,345.7,175.4C345.8,175.5,345.8,175.5,345.7,175.4
								C345.8,175.4,345.7,175.4,345.7,175.4z"/>
							<path fill="#FFFFFF" d="M332.3,175.2c-0.5,0.2-1.2,0.1-1.8,0.1c0-0.8,3.2-3.1,3.9-3.8c0.4,0,0.9,0,1.3,0
								C335.7,172.1,333,174.9,332.3,175.2z"/>
							<path fill="#FFFFFF" d="M356.3,192.5c-0.6,0.2-1.3-0.2-1.6-0.6c-0.3-0.5-0.5-1-0.6-1.5c-0.3-0.8-0.6-1.7-0.9-2.5
								c-0.2-0.6-0.6-1.3-0.6-2c0.1-0.4,0.4-0.6,0.7-0.8c0.3,0.1,0.4,0.1,0.6,0.4c0.2,0.3,0.2,0.5,0.3,0.8c0.3,0.8,0.5,1.6,0.8,2.5
								c0.3,1,0.7,1.9,1.1,2.8C356.1,191.7,356.6,192.4,356.3,192.5z"/>
							<path fill="#FFFFFF" d="M353.3,171.5c0.4,0.6,2.9,3.4,2.8,3.9c0,0.1-0.2,0.1-0.3,0.2c-0.8,0-1.5,0-2.3,0c-1.3,0-2.7,0-4,0
								c0,0,0-0.1,0-0.1c0,0-0.1,0-0.1,0c0-0.3,0.2-0.6,0.4-0.8c0.4-0.8,2.1-3,2-3.8c0-0.3-0.2-0.5-0.5-0.6
								c-1.1-0.4-2.3-0.1-3.5-0.1c-0.6,0-2-0.3-2.5-0.1c-1.2,0-5.2-0.6-5.6,0.4c-0.1,0.2,0,0.5,0.1,0.7c0.5,0.9,1.2,1.8,1.8,2.6
								c0.3,0.5,0.7,1,1,1.5c0,0,0,0.1,0,0.1c-0.1,0-0.2,0.1-0.3,0.1c-2.5,0-4.9-0.1-7.4-0.1c0-0.1,0-0.1,0-0.2c0.1,0,3.6-4.2,4-4.7
								c0-0.1,0-0.1-0.1-0.2c-0.4,0-0.9-0.1-1.3-0.2c-0.7,0-1.5-0.1-2.2-0.1c-2.1,0-4.3,0.1-6.3-0.1c0-0.2,3-3.1,3.4-3.5
								c2.5-2.7,5.2-5.2,7.9-7.9c0.9-0.9,1.8-1.9,2.7-2.8c0.3-0.3,0.6-0.6,0.9-0.7c0-0.1,0-0.1,0-0.2c0.6,0.3,1.1,0.9,1.6,1.4
								c0.8,0.8,1.6,1.6,2.4,2.5c0.5,0.5,1,0.9,1.5,1.4c2.3,2.4,4.7,4.6,7,6.9c0.9,1,2.2,1.9,2.9,3c-0.2,0-0.3,0.1-0.5,0.1
								c-0.7,0-1.5,0-2.2,0c-0.3,0-0.6-0.1-0.9,0c-1,0-2.2-0.1-3,0.2C352.7,170.7,353.1,171.2,353.3,171.5z"/>
							<path fill="#FFFFFF" d="M328.5,181.4c0.4-0.6,7.1-0.1,8.3-0.1c1.7,0,3.3-0.2,5-0.2c2.3,0,4.7,0.2,7,0.2c1.2,0,2.5,0,3.7-0.1
								c2.8-0.1,5.6,0.1,8.3,0.1c0,0,0-0.1,0-0.1c0.1,0,0.2-0.8,0.2-1c0-1.8,0-3.6,0.1-5.4c0-1.3,0-2.6,0.2-3.7
								c1.4,0.8,1.3,2.6,1.3,4.1c0,1,0.1,2.1,0.1,3.2c-0.1,0.6-0.1,1.1-0.2,1.7c0,0.8,0.2,1.8-0.1,2.5c0,0.1,0,0.1,0,0.2
								c0,0-0.1,0-0.1,0c0-0.2-0.5-0.1-0.7-0.1c-1.4,0-2.7,0.1-4.1,0.1c-0.6,0-1.5-0.1-2,0.1c-0.5,0-1.2-0.1-1.7,0.1
								c-1.6,0-3.1,0-4.7-0.1c-0.7-0.1-1.7-0.4-2.4-0.1c-1.2,0-2.3-0.1-3.5-0.1c-0.3,0-0.6-0.1-0.8,0c-0.7,0-2.1-0.3-2.6,0
								c-0.4,0-0.8,0-1.1,0.1c-1.1,0-2.2,0-3.3,0c-0.7,0-1.4-0.1-2.1-0.1c-0.2,0-0.5,0-0.7,0c-0.3,0-0.5,0.1-0.8,0.1
								c-1.3,0-2.3,0.3-3-0.8C328.5,181.8,328.4,181.6,328.5,181.4z"/>
							<path fill="#FFFFFF" d="M362,203.4c-0.3,0.4-1,0.5-1.5,0.5c0-2.2-0.1-4.5,0-6.8c0-0.6-0.1-1.4,0-2c0.1-0.2,0.2-0.3,0.3-0.5
								c0.5,0,0.9,0,1.2,0.2c0.1,0,0.2,0.9,0.1,1.1c-0.1,0.5,0,1,0,1.5c0,0.8-0.1,1.5-0.1,2.3C362.2,200.6,362.4,202.7,362,203.4z"
								/>
							<path fill="#FFFFFF" d="M388.3,200.5c-0.3,0-0.7,0-0.9,0.2c-0.4,0-1.3,0.2-1.7,0.4c-0.8,0-1.5,0.3-2.2,0.5
								c-0.5,0.1-1,0.2-1.5,0.3c-0.4,0-0.8,0-1.1,0.2c-0.2,0-0.4,0.1-0.6,0.1c-0.2,0-0.4,0.1-0.6,0.1c-0.5,0-1.2-0.1-1.6,0.2
								c-0.2,0-0.4,0.1-0.6,0.1c-0.9,0-1.9-0.1-2.5,0.3c-0.3,0-0.7,0-1,0.1c-0.4,0-0.7-0.1-1.1-0.2c0,0.2-1.1,0.3-1.2,0.4
								c-0.6,0-1.3-0.1-1.8,0.1c-0.2,0-0.4,0.1-0.6,0.1c-0.6,0-1.3-0.1-1.8,0.2c-0.4,0-0.8,0-1.1,0.2c-0.6,0-2,0.1-2.4-0.1
								c-0.6-0.4-0.3-6-0.2-7.1c0-0.5,0-1.1-0.1-1.6c0-0.6,0.2-2.4-0.8-2.1c-0.5,0-1.7-0.1-2.1,0.1c-0.6,0-2.1,0.1-2.5-0.2
								c-0.6-0.6-0.9-2.7-1.2-3.5c-0.5-1.2-1.2-2.5-1.4-3.8c0-0.1-0.1-0.4,0-0.5c0.3-0.3,1.4-0.2,1.9-0.2c1,0,5.7,0,6.1-0.6
								c0.2-0.4,0.1-1.8,0.1-2.4c0-0.9,0.1-1.7,0.1-2.6c0-1.3-0.3-2.8,0.1-4c3,3.2,6.4,6.2,9.5,9.4c0.3,0.4,0.6,0.7,0.9,1.1
								c0.8,0.8,1.6,1.5,2.4,2.2c2.1,2.1,4.1,4.4,6.2,6.5c1.6,1.6,3.3,3.2,4.9,4.8c0.3,0.3,0.8,0.6,0.9,1
								C389,200.2,388.5,200.4,388.3,200.5z"/>
							<path fill="#FFFFFF" d="M382.5,117.1c0.5-0.6,1-1.1,1.5-1.7c0.6-0.6,1.2-1.1,1.8-1.6c0.8-0.8,1.5-1.6,2.3-2.4
								c0.9-0.8,1.7-1.7,2.6-2.5c1.7-1.8,3.4-3.5,5.1-5.3c2.6-2.5,5.3-4.9,7.7-7.6c0.6-0.7,1.5-1.3,2-2c0.4,0.6,0.1,2.2,0.2,3
								c0.1,1.9,0,4,0,6.1c0,1,0.1,2,0.1,3.1c-0.1,1.1-0.1,2.1-0.2,3.2c0,0.6,0.1,1.2,0.1,1.8c0,0.3,0,0.6,0,0.9
								c0,0.4,0.1,0.7,0.1,1.1c0,0.3-0.1,0.6-0.1,0.9c-0.1,1.6-0.2,3.2-0.1,4.9c0.1,0.8,0.2,1.7,0.2,2.5c0,0.5-0.1,0.9-0.2,1.4
								c0,1.1,0,2.1,0,3.2c0,0.4,0,0.7-0.1,1.1c0,0.7,0.2,1.4,0.2,2c0,0.9-0.2,1.9-0.2,2.9c0.1,1.2,0.2,2.4,0.2,3.6
								c-0.1,0.7-0.1,1.5-0.2,2.2c0,0.3,0.1,0.5,0.1,0.8c0,0.8-0.1,1.6-0.1,2.4c0,0.6,0.1,1.1,0.1,1.7c0,0.4-0.1,0.8-0.1,1.2
								c-0.1,0.8,0,1.7,0.1,2.5c0.2,1.2,0.1,2.8,0,4c0,0.3-0.1,0.6-0.1,0.9c0,0.7,0.1,1.4,0.1,2.1c-0.1,0.4-0.1,0.8-0.2,1.2
								c0,0.4,0,0.9,0.1,1.3c0,0.6-0.1,1.2-0.1,1.8c0,0.6,0.3,3.7-0.2,3.7c-0.3,0-3.1-3.1-3.6-3.5c-3.5-3.5-7-7.1-10.5-10.7
								c-0.6-0.6-1-1.2-1.6-1.8c-0.5-0.5-1-1-1.5-1.4c-0.2-0.3-0.5-0.6-0.8-0.9c-3.4-3.3-6.8-6.7-10.1-10c-0.6-0.6-5-5-5-5.3
								c0-0.1,0-0.2,0-0.2c0.3-0.8,1.7-1.7,2.4-2.4c0.7-0.7,1.3-1.5,2-2.2c0.6-0.6,1.3-1.3,2-1.9c0.2-0.2,0.5-0.4,0.7-0.6
								c0.5-0.6,1.1-1.1,1.6-1.7C381.5,118.2,382,117.6,382.5,117.1z"/>
							<path fill="#FFFFFF" d="M362.4,68.2c0.3-0.2,0.6-0.3,0.9-0.6c0.2-0.3,0.4-0.5,0.5-0.8c0.5-0.7,1-1.3,1.5-1.9
								c0.2-0.2,0.4-0.4,0.6-0.6c0.4-0.2,1-0.1,1.5-0.1c1,0,2,0,2.9-0.1c0.4,0,0.9,0,1.2-0.2c0.7,0,1.3,0,2,0
								c0.8,0.1,1.6,0.3,2.4,0.3c0.7,0,1.3-0.3,2-0.2c0.2,0,0.5,0.1,0.7,0.1c0.8,0.1,1.9,0.1,2.6-0.1c0,0,0,0.1,0,0.1
								c0,0,0.1,0,0.1,0c0,0.1,0,0.1-0.1,0.1c0,0,0,0.1,0,0.1c-0.9,1.1-2.1,2-3.1,3c-1.9,1.8-3.8,3.7-5.6,5.5
								c-0.4,0.4-0.9,0.8-1.3,1.2c-1.7,1.7-3.2,3.6-4.9,5.2c-0.6,0.6-1.3,1.2-1.9,1.8c-0.4,0.3-0.7,0.6-1,0.9
								c-0.4,0.5-0.8,0.9-1.2,1.4c-1,1.1-2.1,2.2-3.3,3.2c-0.5,0.6-1,1.2-1.6,1.9c-1.2,1.1-2.3,2.2-3.5,3.4c-2,1.9-3.9,3.9-5.9,5.9
								c-0.7,0.6-1.2,1.4-2,1.9c0,0,0,0.1,0,0.1c0,0-0.1,0-0.1,0c0,0,0-0.1,0-0.1c0,0-0.1,0-0.1,0c0-0.3,0.1-0.5,0.1-0.8
								c0-0.6-0.1-1.2,0-1.8c0.1-0.3,0.2-0.6,0.2-1c0-0.6-0.2-1.1,0.1-1.6c0.2-0.3,0.6-0.5,0.8-0.7c0.5-0.5,0.8-1.1,1.4-1.6
								c0.6-0.4,1.4-0.5,2.1-0.9c0.4-0.2,0.8-0.6,1.2-0.9c0.9-0.6,2-1.1,2.7-2.1c0.2-0.4,0.4-0.8,0.6-1.1c0.2-0.3,0.5-0.7,0.7-1
								c0.2-0.5,0.2-1,0.3-1.5c0.2-0.7,0.5-1.3,0.5-2c-0.1-0.7-0.2-1.3-0.2-2c-0.1-0.9-0.6-1.6-1.1-2.3c-0.2-0.3-0.5-0.5-0.6-0.9
								c-0.2,0,0-0.2,0-0.3c0.1-0.2,0.3-0.4,0.4-0.6c0.6-0.9,1.2-1.9,2.1-2.6c0.5-0.3,0.5-0.8,0.9-1.2c0.4-0.5,1-0.7,1.5-1.3
								c0.2-0.3,0.5-0.6,0.7-0.9c0.2-0.3,0.3-0.7,0.6-1c0.3-0.3,0.6-0.4,0.9-0.7C361.9,68.6,362.1,68.4,362.4,68.2z"/>
							<path fill="#FFFFFF" d="M311.5,64.3c0.9,0,1.9,0.1,2.7-0.1c0.6,0.1,1.3,0.1,2,0.1c0.5,0,1.1,0.1,1.6,0.1c0.7,0,1.5,0,2.2,0
								c0.3,0.1,0.6,0.1,1,0.2c0.7,0,1.5-0.4,2.1-0.2c0.8,0.3,1.4,1.1,2,1.7c0.9,0.9,1.9,1.9,2.8,2.8c0.6,0.7,1.2,1.4,1.8,2.1
								c0.8,0.8,1.6,1.4,2.4,2.2c0.5,0.5,0.8,1,1.2,1.5c0.3,0.2,0.5,0.4,0.8,0.6c0.5,0.4,1,1,1.3,1.6c-0.3,0-0.7,0.6-0.9,0.8
								c-0.7,0.8-1.3,1.5-1.5,2.5c-0.1,0.4-0.1,0.8-0.2,1.2c-0.1,0.6-0.3,1.3-0.2,2c0.1,0.5,0.2,0.9,0.3,1.4c0.2,0.5,0.4,1,0.6,1.4
								c0.2,0.5,0.4,1.1,0.7,1.6c0.3,0.4,0.7,0.5,1.1,0.8c0.3,0.2,0.5,0.7,0.8,0.9c0.3,0.2,0.7,0.3,1,0.5c0.5,0.3,0.9,0.6,1.4,0.9
								c0.6,0.4,1.3,0.6,1.9,1.1c0.3,0.5,0.7,0.9,1,1.4c0.3,0.4,0.8,0.7,1,1.1c0.1,0.3,0.3,0.7,0.3,1.1c0,0.3-0.1,0.7,0,1.1
								c0.2,0.8,0.5,1.9,0.4,2.7c-0.7,0-2.2-1.8-2.7-2.3c-1.1-1-2.2-2-3.3-3.1c-0.8-0.8-1.6-1.7-2.4-2.5c-1.6-1.6-3.3-3.2-4.8-4.8
								c-0.8-0.9-1.7-1.7-2.5-2.6c-0.3-0.4-0.7-0.8-1.1-1.2c-2.9-2.8-5.7-5.6-8.6-8.4c-0.8-0.8-1.5-1.6-2.3-2.5
								c-1.6-1.7-3.2-3.3-4.9-4.9c-0.8-0.8-2.6-1.9-2.9-3C309,64.4,310.2,64.3,311.5,64.3z"/>
							<path fill="#FFFFFF" d="M292.9,150.9c-1.3,1.2-2.3,2.6-3.6,3.8c-1.9,1.8-3.7,3.6-5.6,5.4c-0.6,0.6-1.5,1.3-2,2
								c0,0-0.1,0-0.1,0c0,0.2-0.2-0.3-0.2-0.4c0-0.6,0-1.3,0-1.9c0-1.9,0.1-3.9,0.1-5.8c0-1.6,0-3.1,0-4.7c0-0.5,0-1.1-0.1-1.6
								c0-1.4,0.1-3,0.1-4.6c0-0.6,0-1.3-0.1-1.9c0-0.9,0.1-1.9,0.1-2.9c0-0.6,0-1.2-0.1-1.8c0-1.7,0-3.3,0-5c0-0.5,0-1-0.1-1.5
								c0.1-0.6,0.1-1.2,0.2-1.8c0-1.4-0.1-2.7,0-4c0.1-1,0.1-2,0.2-3.1c0-2.2-0.1-4.4-0.1-6.6c0.1-1.1,0.1-2.1,0.2-3.2
								c0-0.6-0.1-1.1-0.1-1.7c0-2.2,0.1-4.5,0-6.7c0-0.5,0-0.9-0.1-1.4c0-0.6,0.1-1.1,0.1-1.7c0-0.7-0.1-1.3-0.1-1.9
								c0-0.4,0.1-0.8,0.1-1.1c0-1,0-2.1,0-3.2c0.9,0.3,1.6,1.3,2.3,2c1.5,1.5,3,2.9,4.5,4.4c0.5,0.6,1,1.1,1.6,1.7
								c1.1,1.1,2.3,2.2,3.3,3.4c0.3,0.4,0.7,0.8,1.1,1.2c0.7,0.7,1.5,1.4,2.3,2.1c0.3,0.3,0.5,0.7,0.8,1c1.8,1.7,3.6,3.2,5.4,4.9
								c1.7,1.7,3.4,3.5,5.1,5.2c1.1,1,7.8,7.3,7.4,8.3c-0.1,0.2-0.2,0.4-0.4,0.6c-0.8,1.4-2.6,2.9-3.8,4c-0.4,0.4-0.7,0.9-1.1,1.3
								c-1,1-2,2-3,3c-1.4,1.4-2.8,2.7-4.2,4.1c-0.9,0.9-1.8,1.9-2.7,2.8c-0.2,0.3-0.5,0.5-0.7,0.8
								C297.5,146.5,295.2,148.7,292.9,150.9z"/>
							<path fill="#FFFFFF" d="M330.2,192.7c-0.8,0-3.3-0.2-3.7,0.1c-0.2,0.1-0.2,0.3-0.2,0.5c0,2.3,0,4.7-0.1,7
								c0,1,0.1,2.5-0.1,3.5c-0.1,0.2-0.2,0.5-0.4,0.6c0,0,0,0.1,0,0.1c-0.7,0-1.4-0.3-2-0.4c-0.6-0.1-1.3,0.1-1.9,0.1
								c-0.5-0.1-0.9-0.1-1.4-0.2c-0.9-0.1-1.8-0.2-2.7-0.3c-0.4,0-0.9-0.1-1.2,0c-2.1,0-4-0.4-6.1-0.6c-0.9-0.1-1.8-0.1-2.7-0.2
								c-0.7-0.1-1.5-0.2-2.2-0.4c-0.3-0.1-0.6-0.1-1-0.2c-0.5,0-0.9,0-1.4-0.1c-1.1-0.2-2.1-0.4-3.2-0.6c-0.8-0.1-1.8-0.1-2.5-0.5
								c0,0-0.1,0-0.1,0c0-0.1,0-0.1,0-0.2c0.1,0,0.1,0,0.1-0.1c0.5-0.7,1.4-1.5,2-2.2c0.6-0.6,1.2-1.2,1.8-1.8
								c0.9-0.9,2-1.8,2.9-2.7c0.5-0.5,0.9-0.9,1.4-1.4c0.4-0.4,0.8-0.9,1.2-1.3c2.4-2.3,4.9-4.6,7.2-7c1.5-1.5,2.8-3,4.3-4.5
								c2.1-2,4.1-3.9,6.1-6c0.6-0.6,1.2-1.2,1.7-1.8c0.4,0.5,0.1,2.6,0.1,3.3c-0.1,1.1-0.1,2.2-0.1,3.4c0,0.7-0.1,1.5,0.1,2.2
								c0.2,0.6,0.7,1.2,1,1.7c0.2,0.3,0.3,0.7,0.7,1c0.5,0.3,2.2,0.4,2.9,0.3c1.2,0,2.5-0.1,3.9-0.1c0,0.9-0.6,1.9-0.8,2.7
								c-0.5,1.3-1.1,2.7-1.6,4c-0.2,0.5-0.4,1.2-0.7,1.6c-0.3,0.3-0.6,0.1-1,0.2C330.6,192.7,330.4,192.7,330.2,192.7z"/>
							<path fill="#FFFFFF" d="M336.2,208.4c-0.9-0.1-1.8-0.7-2.6-1.1c-0.6-0.3-1.4-0.4-2-0.8c0,0-0.1,0-0.1,0c0,0,0-0.1,0-0.1
								c0,0,0.1,0,0.1,0c0-0.1,0-0.1,0.1-0.1c1.3,0,7.4,0.2,7.9-0.3c0.3-0.3,0.3-1.4,0.3-1.8c0-2.8-0.3-6.6,2.3-8.1
								c0.4-0.2,0.8-0.3,1.2-0.4c0.7,0,2.5,0.3,2.4,1.2c0,0.2-0.3,0.2-0.5,0.3c-1.7,0.2-2.1,1.1-2.8,2.5c-0.6,1.1-0.5,2.9-0.5,4.4
								c0,1.4-0.1,2.7-0.1,4.1c0,0-0.1,0-0.1,0c0,0.2-0.9,0-1.1,0.1c-0.5,0-0.9,0.1-1.3,0.2C338.4,208.4,337.3,208.4,336.2,208.4z"
								/>
							<path fill="#FFFFFF" d="M346.1,210.2c-0.3,0.4-0.6,0.7-0.9,1.1c-0.8,0.8-1.6,1.5-2,2.4c0,0-0.1,0-0.1,0
								c-0.5-0.6-1.1-1.2-1.6-1.8c-0.5-0.5-1.6-1.1-2.2-1.4c0,0,0,0,0-0.1c0,0-0.1,0-0.1,0c0,0,0-0.1,0-0.1c0,0,0.1,0,0.1,0
								c0-0.2,0.1-0.1,0.3-0.1c0.3-0.1,0.6-0.1,1-0.2c1,0,2.1-0.1,3.1-0.1c0-0.2,0.1-0.4,0.1-0.5c0-0.4,0.1-0.9,0.1-1.3
								c0-0.4-0.1-0.8-0.1-1.2c0-0.4,0-0.8,0.1-1.2c0-0.9-0.1-1.8,0-2.7c0.1-0.5,0.2-1,0.3-1.5c0.1-0.6,0.3-1.3,0.7-1.8
								c0.4-0.5,1-0.4,1.5-0.6c0.2,0.1,0.4,0.2,0.4,0.4c0.2,0.6,0,1.4,0,2c0,1.5,0,3,0,4.6c0.1,0.4,0.3,0.7,0.4,1
								c0.2,0.5,0.4,1,0.6,1.5c0.1,0,0.1,0,0.1,0.1C347.5,209.2,346.7,209.7,346.1,210.2z"/>
							<path fill="#FFFFFF" d="M349.5,207.8c-0.4-0.3-0.7-1.1-0.8-1.7c0.4,0,0.9,0,1.3-0.1c1,0,2,0.1,3,0.1c0,0,0,0.1,0,0.2
								c-0.3,0-0.7,0.3-1,0.4c-0.8,0.4-1.6,0.7-2.4,1.1C349.7,207.9,349.6,207.8,349.5,207.8z"/>
						</g>
						<g>
							<g>
								<path fill="#FFFFFF" d="M319.2,135.7c0-0.8,0.2-1.6,0.2-2.5c-0.1-0.9-0.1-1.8-0.2-2.7c0-1.5,0.2-2.9,0.2-4.4
									c0-0.9-0.1-1.8-0.1-2.6c0-0.7,0.1-1.3,0.1-2c0-0.7-0.1-1.4-0.1-2c0-1.1,0.3-2.1,0.4-3.2c0-0.6-0.1-1.2-0.1-1.9
									c0-0.3,0-0.7,0.1-1.1c0-1.3,0.2-2.5,0.2-3.9c0-0.9-0.1-2.3,0.1-3.1c0.2-0.8,2.6-3.5,3.5-3.9c0,0,0-0.1,0-0.1
									c0.2,0.7,0.1,1.6,0,2.3c-0.1,0.8-0.1,1.7-0.1,2.6c0,0.6,0.1,1.2,0.1,1.8c0,1.1,0,2.2,0,3.3c0,0.5-0.1,1-0.1,1.5
									c0,0.6,0,1.2,0.1,1.8c0,1.6-0.1,3.3-0.1,4.9c0,1.7-0.2,3.6-0.1,5.3c0.1,0.6,0.1,1.3,0.2,1.9c0,1.3,0,2.6,0,3.9
									c0,0.6-0.1,1.2-0.1,1.8c0,1,0,2,0,3.1c0,1.2,0.2,3.4-0.2,4.5c-0.1,0.3-0.5,0.5-0.7,0.8c-0.3,0.4-0.6,0.8-0.9,1.2
									c-0.3,0.3-0.6,0.5-0.9,0.8c-0.3,0.6-0.6,1.1-0.9,1.7c0,0-0.1,0-0.1,0c0,0,0,0.1,0,0.1c0,0-0.1,0-0.1,0
									c0-1.7-0.2-3.4-0.3-5.1c0-1,0.2-2,0.2-3C319.3,137,319.1,136.3,319.2,135.7z"/>
								<path fill="#FFFFFF" d="M320.8,146.6c0.4-1,0.8-1.4,1.6-2.1c0.5-0.4,0.9-0.9,1.4-1.2c2.2-1.5,5.8-1.4,8.6-0.9
									c0.5,0.2,1.1,0.3,1.6,0.5c1.8,0.3,3.4,0.5,4.9,1.4c1,0.6,1.8,1.4,2.7,2.1c0.2,0.2,0.5,0.3,0.7,0.4c0.4,0.3,0.9,1,1.4,1
									c0.8,0,1.3-1.1,2-1.5c0.7-0.5,1.4-1,2.1-1.4c2.1-1,4.1-2,6.4-2.6c0.8-0.2,1.6-0.4,2.5-0.6c0.5-0.1,1,0,1.4-0.2
									c0.7,0,1.4,0,2.1,0c1.2,0.2,2.4,0.8,3.3,1.4c0.4,0.4,0.8,0.9,1.2,1.3c0.6,0.7,1.3,1.4,1.5,2.4c0,0-0.1,0-0.1,0
									c0,0.2-0.7,0.1-0.9,0.1c-1.8,0-3.7,0-5.5,0c-0.7,0-1.6-0.1-2.1,0.2c-0.6,0-1.5-0.4-2-0.1c-0.2,0-0.4,0.1-0.6,0.1
									c-0.7,0-1.5-0.1-2.1,0.2c-0.3,0-0.6,0.1-0.9,0.2c-0.6,0-1.8-0.2-2.3,0.1c-0.3,0-0.5,0.1-0.8,0.1c-0.3,0-0.5,0.1-0.8,0.1
									c-0.4,0-1,0.1-1.2,0.3c-0.1,0,0,0.5,0,0.6c0,1.6-1.1,3-2.7,3c-1.3,0-2.3-0.9-2.6-2.1c-0.1-0.4,0-1-0.2-1.3
									c-0.1-0.1-0.3-0.2-0.5-0.2c-0.6,0-1.2-0.1-1.8-0.1c-0.1,0-0.3,0.1-0.4,0.1c-1.4,0-2.7-0.2-4.2-0.2c-0.4,0-0.9-0.1-1.2,0.1
									c-1.1,0-2.1-0.1-3.2-0.1c-0.5,0-1.2-0.1-1.6,0.2c-1.5,0-3.1-0.1-4.7-0.1c-0.5,0-1.3-0.1-1.8,0.1c-0.5,0-0.9,0-1.3-0.2
									C320.5,147.2,320.7,146.9,320.8,146.6z"/>
							</g>
							<g>
								<path fill="#FFFFFF" d="M368.6,111.7c0-0.8-0.2-1.7-0.2-2.5c0-0.4,0-0.9-0.1-1.3c0-0.2,0-1-0.1-1c0,0,0-0.1,0-0.1
									c-0.1,0-0.2,0-0.3,0c-0.2,1.7-0.1,3.6-0.1,5.4c0,0.7-0.3,1.2-0.4,1.8c0,0.3,0,0.7,0,1c0,0.3-0.1,0.6-0.1,1
									c-0.4,0.1-0.7,0-0.8-0.5c-0.1-0.6,0.2-1.1,0.1-1.6c0-0.4-0.1-0.8-0.1-1.2c0-2.1,0.2-4.3,0.2-6.3c0-0.4-0.1-0.7-0.1-1
									c0-0.2-0.1-0.4-0.1-0.5c-0.1,0-0.2,0-0.3,0c0,0,0,0.1,0,0.1c0,0-0.1,0-0.1,0c0,1.5-0.2,2.8-0.3,4.3
									c-0.1,0.3-0.1,0.5-0.2,0.8c-0.1,0-0.2,0-0.3,0c-0.5-1.2-0.3-2.7-0.3-4c0-0.7,0.1-1.5-0.2-2.1c-0.3,0.5-0.3,1-0.3,1.6
									c-0.1,0.7-0.1,1.5-0.1,2.3c0,0.8,0.2,1.6,0.1,2.5c-0.4,5-0.2,10-0.2,15.1c0,1,0,2-0.1,3.1c-0.1,0.9-0.2,1.8-0.2,2.7
									c0,1.3,0.1,2.6,0.1,3.9c0,1.2-0.2,2.7-0.1,3.9c0,0.2,0,0.6,0.2,0.6c0,0,0,0.1,0,0.1c0,0,0.1,0,0.1,0c0,0,0-0.1,0-0.1
									c0,0,0.1,0,0.1,0c0.2-0.7,0.2-1.6,0.2-2.5c0.1-1.4,0.2-2.8,0.2-4.2c0-0.9-0.2-2,0.1-2.9c0.1-0.1,0.2-0.2,0.3-0.1
									c0.3,0.1,0.4,0.6,0.5,0.9c0.2,1.1,0,2.1-0.1,3.2c0,0.9,0,1.8,0,2.6c0,1-0.1,2,0,2.9c0.1,0.5-0.1,1,0.1,1.5
									c0.1,0.3,0.1,0.9,0.5,0.9c0.1-1.4,0.1-3.1,0.1-4.6c0-0.7-0.1-1.4-0.1-2.1c0.1-0.7,0.1-1.4,0.2-2.1c0.1-0.5,0.1-0.9,0.2-1.4
									c0-0.7-0.2-1.3-0.3-1.9c-0.1-0.9-0.1-2-0.1-3c0-0.5,0-1.1,0.2-1.6c0-0.2,0.3-0.3,0.3-0.4c0,0,0.1,0,0.1,0
									c0.3,0.3,0.5,0.5,0.6,1c0.2,1.1,0.1,2.4,0,3.5c0,0.4-0.2,0.7-0.2,1.1c0,1,0.3,2,0.3,3c0,0.4,0,0.8-0.1,1.2
									c0,1.8,0,3.4,0,5.2c0,1.3,0.1,2.7,0.2,3.9c0,0.2-0.1,0.5-0.1,0.7c0.1,0,0.2,0,0.4,0c0.4-0.8,0.2-1.7,0.3-2.6
									c0-1,0.2-2.1,0.1-3.2c-0.1-0.7-0.2-1.3-0.3-2c0-0.7,0.2-1.4,0.3-2.1c0-1.1-0.2-2.1-0.2-3.2c0.1-1.1,0.1-2.3,0.2-3.4
									c0-0.9,0-1.8,0-2.6c0-0.4-0.1-0.7-0.1-1.1c0-0.6,0.1-1,0.2-1.6c0-0.9,0-1.8-0.1-2.7c0-1.4,0.1-2.8,0.1-4.2
									C368.5,114.5,368.7,113.1,368.6,111.7z M365.5,125.2c0,0.1-0.6,0.8-0.5,0.3c-0.1-0.3-0.1-0.7-0.1-1c0-0.8,0-1.7,0-2.5
									c0-1.1,0-2.2,0-3.3c0-0.9-0.1-1.8,0.3-2.5c0.3,0.1,0.5,0.4,0.6,0.6c0.3,1,0.1,2.1,0,3.1
									C365.7,121.4,366.1,123.9,365.5,125.2z M365.7,112.4C365.7,112.4,365.7,112.4,365.7,112.4c-0.7,0-0.8-0.6-0.4-1.1
									C365.7,111.4,366.1,112.4,365.7,112.4z M367.1,123.2c-0.1,0-0.1,0-0.2,0c-0.3-0.7-0.2-1.4-0.2-2.2c0-1.1-0.2-2.1,0.3-3
									c0.3,0.1,0.5,0.1,0.6,0.4C367.9,119,367.9,123.2,367.1,123.2z"/>
								<path fill="#FFFFFF" d="M363.1,121.1c0-0.5-0.1-1-0.1-1.6c0-2.2,0.1-4.5,0.1-6.6c0-0.7,0-1.4-0.1-2c0-1.7,0-3.3-0.1-4.9
									c-0.1-0.5-0.2-1-0.3-1.5c-0.1-0.6,0-1.2,0.1-1.8c0-0.2,0.1-0.8-0.2-0.8c-0.4-0.2-0.9-0.1-1.4-0.1c-0.6,0-1.1-0.1-1.8-0.2
									c-0.7,0.2-1.5,0.2-2.2,0.3c-3.3,0.6-6.3,1.1-9.1,2.6c-0.7,0.4-1.4,0.8-2,1.4c-0.4,0.5-0.4,1.1-0.5,1.7
									c-0.2,1.5-0.2,3.1-0.3,4.7c-0.1,0.8-0.1,1.6-0.2,2.5c0,1.2,0,2.4,0,3.6c-0.1,0.5-0.1,0.9-0.2,1.4c-0.1,1.1-0.1,2.3-0.1,3.4
									c-0.1,1.7,0,3.4,0.1,5c0,1.5-0.1,3.2,0,4.8c0,0.4,0.1,0.9,0.1,1.3c0,0.3-0.1,0.5-0.1,0.8c0,0.7,0.1,1.5,0.1,2.3
									c0,2.2-0.1,4.9,0.8,6.7c0,0.1,0.3,0.5,0.3,0.3c1-0.4,1.8-1.1,2.7-1.6c0.8-0.4,1.7-0.7,2.5-1.1c1-0.5,1.5-0.9,2.8-0.9
									c0.4-0.2,1.4-0.4,1.9-0.4c0.2,0,0.4-0.1,0.6-0.1c0.2,0,0.4-0.1,0.5-0.1c0.9-0.5,3.1,0,4,0.2c0.5,0.1,0.9,0.2,1.4,0.4
									c0.2-1.4,0-2.9,0-4.2c0.1-0.8,0.1-1.5,0.2-2.3c0-1-0.1-1.9,0-2.8c0-0.5,0.1-0.9,0.1-1.4c0.1-1.1,0-2.2,0.1-3.3
									c0-0.6,0.1-1.3,0.1-1.9C363.1,123.5,363.2,122.3,363.1,121.1z M346.8,124.4c2.1-2,4.9-2.9,7.4-4c0.8-0.3,1.8-0.9,2.7-0.9
									c0.3-0.3,1.1-0.6,1.5-0.6c0,0,0-0.1,0-0.1c0.5,0.1,0.9,0.3,0.9,0.9c0,0.5-0.2,0.9-0.6,1.2c-0.8,0.5-1.7,0.6-2.6,0.9
									c-1,0.3-2,0.7-3,1c-0.7,0.2-1.4,0.4-2,0.6c-1.2,0.5-2.4,1.1-3.5,1.8c-0.4,0.2-0.8,0.6-1.3,0.6c-0.1,0-0.2,0-0.3-0.1
									C345.7,125.2,346.6,124.6,346.8,124.4z M359.1,131.5c-0.7,0.4-1.7,0.4-2.5,0.6c-0.8,0.2-1.5,0.4-2.3,0.6
									c-2.6,0.6-4.8,1.6-7,3c-0.3,0.2-1,0.9-1.3,0.3c-0.2-0.4,0.3-0.7,0.6-0.9c0.9-0.8,1.8-1.3,2.7-1.9c1.1-0.7,2.1-1.2,3.2-1.7
									c0.4-0.2,0.7-0.4,1.1-0.6c1.4-0.6,2.9-0.9,4.4-1.4c0.4,0,0.8,0,1.2,0.2C359.9,130.1,359.7,131.2,359.1,131.5z M359.2,110
									c-0.3,0.2-0.8,0.3-1.2,0.4c-1,0.3-2,0.6-3,0.9c-1.4,0.4-2.8,0.9-4,1.6c-0.9,0.5-1.8,1-2.7,1.6c-0.2,0.1-1.4,0.7-1.4,0.4
									c0,0-0.1,0-0.1,0c0.1-0.9,1.2-1.6,1.9-2c0.3-0.2,0.7-0.5,1-0.8c0.9-0.6,1.9-1.1,2.8-1.6c1-0.5,2.1-0.7,3.1-1.1
									c0.4-0.2,0.7-0.3,1.1-0.5c0.5-0.2,0.9-0.3,1.4-0.5c0.4,0,0.8,0,1.1,0.1C360,108.9,359.7,109.7,359.2,110z"/>
								<path fill="#FFFFFF" d="M342.9,109.4c-0.1-1.3,0-2.7-0.7-3.6c-1.4-1.9-3.2-2.5-5.3-3.3c-0.5-0.2-1.1-0.4-1.6-0.6
									c-0.6-0.1-1.2-0.2-1.8-0.3c-0.9-0.2-2-0.4-3-0.5c-1.4,0-2.8,0-4.2,0c-0.4,0.2-1.1,0.1-1.4,0.5c-0.3,0.4-0.1,2-0.1,2.6
									c0,2.4-0.1,4.7-0.1,7.2c0,1.4,0,2.9,0,4.3c-0.1,1.2-0.2,2.4-0.2,3.6c0,0.9,0.3,1.6,0.3,2.5c0,1.8-0.1,3.7-0.1,5.5
									c-0.1,0.8-0.1,1.5-0.2,2.3c0,1.6,0.1,3,0.1,4.6c-0.1,0.8-0.1,1.5-0.2,2.3c0,0.7,0.2,1.4,0.2,2c0,0.8-0.1,1.5-0.2,2.4
									c0.3,0,0.6,0,1,0c0.2-0.1,0.6-0.2,0.9-0.2c0.2-0.1,0.6-0.2,0.9-0.2c0.2,0,0.4-0.1,0.6-0.1c0.8-0.4,3.1,0.1,4,0.2
									c1.1,0.2,2.1,0.1,3.1,0.4c1.2,0.3,3.1,1,4.2,1.6c0.4,0.2,2.5,1.9,2.7,1.9c0,0,0-0.1,0-0.1c0.6-0.9,0.5-1.8,0.7-3
									c0.2-1.3,0.2-2.6,0.3-4c0.1-2,0.2-4.1,0.2-6.1c0-0.9,0-1.8-0.1-2.6c0.1-2.5,0.1-5,0.1-7.5
									C343,117.3,343.3,113.2,342.9,109.4z M339.8,136c-1.5-0.7-3.1-1.3-4.7-1.8c-0.6-0.2-1.1-0.2-1.7-0.4
									c-0.9-0.2-1.7-0.4-2.6-0.6c-1-0.2-2-0.2-3-0.4c-0.1,0-0.2-0.1-0.3-0.1c-0.8-0.4-0.8-2,0.3-2c0,0,0-0.1,0-0.1
									c0.7,0,1.2,0.2,1.9,0.3c0.6,0.1,1.3,0.2,1.9,0.4c0.5,0.2,1.1,0.4,1.6,0.6c1.6,0.5,3,1,4.5,1.7c0.3,0.1,0.7,0.3,1,0.4
									c0.8,0.4,2,1.3,2.7,2c0.2,0.3,0.6,0.4,0.6,0.8C341.1,136.9,340.4,136.3,339.8,136z M341.9,126.4c-0.1,0-0.1,0-0.2,0.1
									c0,0-0.1,0-0.1,0c-0.6,0.1-3.1-1.9-3.8-2.3c-0.9-0.4-1.8-0.8-2.7-1.1c-1.2-0.5-2.4-1-3.8-1.2c-0.5-0.1-1-0.1-1.6-0.2
									c-0.7,0-1.8,0.1-2.4-0.3c-0.7-0.5-0.2-1.9,0.6-1.9c0,0,0-0.1,0-0.1c3.9,0.3,7.2,2,10.4,3.8c0.8,0.5,3,1.8,3.5,2.7
									C341.9,126,342,126.4,341.9,126.4z M342.2,115.4c-0.1,0.2-0.4,0.2-0.6,0.2c-0.5-0.1-0.9-0.6-1.4-0.9c-0.5-0.3-1-0.6-1.5-0.9
									c-2.7-1.4-5.8-2.2-8.8-3c-0.9-0.2-2-0.2-2.7-0.6c-0.6-0.4-0.6-1.2-0.1-1.6c1.3,0,2.3,0.4,3.4,0.8c0.3,0.1,0.7,0.1,1,0.2
									c0.7,0.2,1.4,0.5,2.1,0.8c0.6,0.2,1.2,0.4,1.9,0.7c0.3,0.2,0.6,0.3,0.9,0.5c0.9,0.4,1.7,0.8,2.6,1.2
									C339.6,112.9,342.5,114.7,342.2,115.4z"/>
							</g>
						</g>
					</g>
				</g>
				<g>
					<path fill="#E40344" d="M337.5,32.1c-1.3,0.2-2.7,0.3-4,0.5c-1.2,0.2-2.3,0.4-3.5,0.4c-2.7,0.5-5.5,1-8.2,1.6
						c-3.8,0.8-7.5,2.4-11,3.9c-6.6,2.7-12.8,5.9-18.8,9.8c-1.4,0.9-11.3,7.9-11.3,8.9c1.6,0.1,3.2,0.3,4.8,0.4
						c3.9,0.2,7.9,0.1,11.8,0.1c2.4,0.1,4.8,0.2,7.2,0.4c0.9-0.4,2.4-0.2,3.6-0.2c3.3,0,6.4,0.2,9.5,0.2c1.6-0.7,4.2-0.1,5.9,0
						c5.3,0,10.5,0,15.8,0c5.9,0.1,11.8,0.3,17.7,0.4c10.9-0.1,21.8-0.3,32.6-0.4c0.8-0.3,2,0,3,0c1.9,0,3.8,0.1,5.7,0.2
						c1,0,2-0.1,2.9-0.1c1.8,0.1,3.9,0.2,5.9,0.2c0.4,0,1.7,0.1,2.1,0.1c1.3,0-1.1-1.9-1.5-2.4c-1.4-1.5-2.9-2.6-4.5-3.7
						c-1-0.8-1.9-1.5-2.9-2.3c-2-1.3-4-2.6-6-4c-12.4-7.5-24.4-11.9-39.9-13.5c-2.2,0-4.5-0.1-6.7-0.1
						C344.3,32.2,340.8,32.1,337.5,32.1z"/>
					<path fill="#E40344" d="M275.4,62.1c-1.4,1.4-3.4,3.4-4.7,4.8c-2.8,3.8-5.6,7.6-8.4,11.3c-5.9,9.9-9.5,20.3-12,31.9
						c-0.4,1.8-0.4,3.7-0.6,5.7c-0.9,9.6-1.2,20.3,0.4,29.7c0.4,1.6,0.8,3.1,1.2,4.7c0.5,2.6,0.9,4.9,1.7,7.3c0.8,2,1.6,4,2.4,5.9
						c1,2.9,2.4,5.5,3.8,8.2c3.3,6.4,7.1,12.5,11.7,18.2c0.7,0.8,2.4,3.2,3.6,3.2c0-0.1,0-0.1,0-0.2c0.9-1.8,0.3-7.1,0.2-9.3
						c0-3.6,0-7.3,0-10.9c0-3.3-0.1-6.7,0-10.1c0.3-7.3,0-14.8,0.2-22.1c0.1-6.2,0.4-12.6,0.4-18.9c0-6-0.4-12.5,0.2-18.3
						c0-0.6-0.1-1.3-0.1-1.9c0-1.8,0-3.6,0-5.5c0.1-2.5,0.2-5,0.3-7.6c-0.2-5.4-0.1-10.9-0.3-16.4C275.1,67.9,275.6,64.1,275.4,62.1
						z"/>
					<path fill="#E40344" d="M414.2,62.6c-0.3,3.7,0.3,9.5,0.3,13.4c-0.1,8.4-0.2,16.8-0.2,25.5c0,14.2,0,27.1,0,40.8
						c0,7.7-0.4,15.3,0,23.1c0,3.2-0.1,6.3-0.1,9.5c0,5.8,0.7,11.9-0.5,17.5c-0.1,0.3-0.8,2.8-0.2,2.8c2,0,11.1-13.2,12.4-15.3
						c0.9-1.7,1.8-3.4,2.8-5c0.5-1.1,1-2.3,1.5-3.4c1.8-3.1,3.8-7,5-10.4c2.5-7.3,4-14.8,5-22.9c0.3-2.6,0.2-5.2,0.3-8
						c0.1-1.5,0.1-2.9,0.2-4.4c-0.1-7.9-1.1-16.2-3.1-23.2c-2-6.9-5.1-13.7-8.6-19.9c-1.2-2.2-2.7-4.2-4-6.3
						C423.1,73.5,415.4,61.8,414.2,62.6z"/>
					<path fill="#E40344" d="M401.6,205.2c-5.4,4.1-16.6,4.5-23.7,5.4c-1.8,0.2-3.7,0.5-5.5,0.7c-8.9,0.4-20.6,1.3-23.8,10.4
						c-0.3,1-0.3,1.2-0.6,2.2c-0.1,0.9,4,0,5.9,0c0.5-0.3,1.4-0.2,2.1-0.2c0.4-0.1,0.8-0.1,1.3-0.2c1.1-0.6,2.7-0.6,4-0.6
						c0.9-0.4,2.1-0.4,3.2-0.4c1.2-0.6,4-1.1,5.5-1.1c2.5-0.9,5-1.7,7.5-2.6c7.1-2.9,14.7-5.8,20.8-10.7
						C399,207.4,400.1,207.1,401.6,205.2z"/>
					<path fill="#E40344" d="M290.7,207c1.6,1.9,3.8,2.3,5.8,3.7c1.1,0.8,2.8,1.7,3.9,2.5c4.3,2.1,7.6,3.8,12,5.2
						c4.8,1.6,9.6,3.1,14.8,4.1c1.8,0.3,13.8,2.5,14.2,1.4c0.7-1.8-3.2-6.3-4.6-7.4c-1.3-1.1-2.8-1.8-4.2-2.5
						c-1.3-0.7-2.9-1.2-4.4-1.6c-2-0.5-3.9-1.2-5.9-1.5c-2-0.3-4-0.3-6.1-0.5c-1.8-0.3-3.7-0.6-5.5-0.9c-2.4-0.3-4.8-0.3-7.1-0.6
						C299.2,208.3,295.1,207.3,290.7,207z"/>
				</g>
			</g>
		</g>
	</g>
</g>
</svg>
