<svg xmlns="http://www.w3.org/2000/svg" class="Icon-module_icon__23Vv4 Icon-module_sBreakpointSizesmall__17-dg Icon-module_cool-grey__3Wtpa" viewBox="0 0 32 32" width="32" height="32" aria-hidden="false"><path d="M15 9v6.59l-2.66 2.65 1.42 1.42L17 16.41V9h-2z"></path><path d="M28 16a11.9 11.9 0 00-.37-2.88l-1.94.48A9.57 9.57 0 0126 16a10 10 0 11-2.5-6.56L25 8.12a12.23 12.23 0 00-3-2.49V0H10v5.61a12 12 0 000 20.75V32h12v-5.66A12 12 0 0028 16zM12 2h8v2.7a11.86 11.86 0 00-8 0zm8 28h-8v-2.72a11.78 11.78 0 008 0z"></path></svg>